<?xml version="1.0" encoding="UTF-8"?>
<svg id="Layer_1" data-name="Layer 1" xmlns="http://www.w3.org/2000/svg" viewBox="0 0 301.4433 154.9845">
  <defs>
    <style>
      .cls-1 {
        fill: #e04047;
      }

      .cls-1, .cls-2, .cls-3 {
        stroke-width: 0px;
      }

      .cls-2 {
        fill: #f9f3dc;
      }

      .cls-3 {
        fill: #fcc40f;
      }
    </style>
  </defs>
  <path class="cls-3" d="M23.3222,20.9823h266.886c6.6356,0,10.7867,7.5498,7.4765,13.5979l-40.2882,73.6121c-1.5395,2.8128-4.3904,4.5465-7.4765,4.5465H66.459c-2.9937,0-5.7733-1.6323-7.3439-4.3125L15.9783,34.8143c-3.542-6.0444.5927-13.832,7.3439-13.832Z"/>
  <polygon class="cls-1" points="144.6152 4.7087 0 4.7087 37.018 135.1041 210.5915 135.1041 210.5915 150.3226 280.1032 119.0629 210.1802 87.3919 210.1802 102.6105 62.9307 102.6105 40.7198 38.4363 155.1429 38.4363 144.6152 4.7087"/>
  <circle class="cls-2" cx="182.303" cy="118.9777" r="8.03"/>
  <circle class="cls-2" cx="148.0816" cy="118.9777" r="8.03"/>
  <circle class="cls-2" cx="114.2663" cy="118.9777" r="8.03"/>
  <circle class="cls-2" cx="80.4511" cy="118.9777" r="8.03"/>
  <circle class="cls-2" cx="52.2372" cy="118.9777" r="8.03"/>
  <circle class="cls-2" cx="39.7505" cy="85.4361" r="8.03"/>
  <circle class="cls-2" cx="28.7635" cy="51.8945" r="8.03"/>
  <circle class="cls-2" cx="20.7335" cy="20.9823" r="8.03"/>
  <circle class="cls-2" cx="60.2672" cy="20.9823" r="8.03"/>
  <circle class="cls-2" cx="93.8801" cy="20.9823" r="8.03"/>
  <circle class="cls-2" cx="126.259" cy="20.9823" r="8.03"/>
</svg>