<svg xmlns="http://www.w3.org/2000/svg" xmlns:xlink="http://www.w3.org/1999/xlink" width="1920" zoomAndPan="magnify" viewBox="0 0 1440 809.999993" height="1080" preserveAspectRatio="xMidYMid meet" version="1.0"><defs><clipPath id="ac0c521553"><path d="M 425 556 L 1064 556 L 1064 677.855469 L 425 677.855469 Z M 425 556 " clip-rule="nonzero"/></clipPath><clipPath id="39d5069596"><path d="M 793 131.855469 L 920 131.855469 L 920 256 L 793 256 Z M 793 131.855469 " clip-rule="nonzero"/></clipPath><clipPath id="c37fcb3138"><path d="M 372 131.855469 L 499 131.855469 L 499 256 L 372 256 Z M 372 131.855469 " clip-rule="nonzero"/></clipPath></defs><g clip-path="url(#ac0c521553)"><path fill="#ffffff" d="M 486.617188 556.015625 C 452.855469 556.015625 425.5 583.410156 425.5 617.171875 C 425.5 650.929688 452.855469 678.285156 486.617188 678.285156 C 520.375 678.285156 547.730469 650.929688 547.730469 617.171875 C 547.75 583.449219 520.453125 556.097656 486.734375 556.015625 Z M 1002.089844 556.015625 C 968.328125 556.015625 940.972656 583.410156 940.972656 617.171875 C 940.972656 650.929688 968.328125 678.285156 1002.089844 678.285156 C 1035.851562 678.304688 1063.222656 650.96875 1063.242188 617.210938 L 1063.242188 617.171875 C 1063.261719 583.449219 1035.988281 556.097656 1002.246094 556.015625 Z M 486.617188 575.746094 L 486.65625 575.746094 C 490.410156 575.746094 494.140625 576.253906 497.757812 577.277344 L 495.011719 588.261719 L 487.519531 601.519531 L 480.300781 576.257812 C 482.367188 575.9375 484.488281 575.746094 486.617188 575.746094 Z M 1002.089844 575.746094 L 1002.167969 575.746094 C 1005.941406 575.765625 1009.652344 576.292969 1013.269531 577.316406 L 1010.523438 588.261719 L 1003.03125 601.519531 L 995.8125 576.257812 C 997.882812 575.9375 999.980469 575.746094 1002.089844 575.746094 Z M 502.816406 579.082031 C 510.6875 582.4375 517.324219 588.128906 521.800781 595.398438 L 517.605469 601.480469 L 496.226562 612.304688 C 495.863281 611.90625 495.492188 611.53125 495.089844 611.167969 C 498.222656 602.632812 500.109375 593.667969 501.757812 584.769531 C 502.140625 582.863281 502.476562 580.96875 502.816406 579.082031 Z M 1018.328125 579.082031 C 1026.179688 582.414062 1032.796875 588.089844 1037.273438 595.359375 L 1033.078125 601.480469 L 1011.699219 612.304688 C 1011.335938 611.90625 1010.964844 611.53125 1010.5625 611.167969 C 1013.695312 602.613281 1015.621094 593.667969 1017.269531 584.769531 C 1017.652344 582.863281 1017.988281 580.96875 1018.328125 579.082031 Z M 464.84375 581.984375 L 470.964844 586.179688 L 481.792969 607.558594 C 481.390625 607.921875 481.015625 608.296875 480.652344 608.699219 C 472.097656 605.5625 463.132812 603.636719 454.214844 601.988281 C 452.308594 601.628906 450.433594 601.332031 448.527344 600.96875 C 451.859375 593.097656 457.574219 586.441406 464.84375 581.984375 Z M 980.355469 581.984375 L 986.4375 586.179688 L 997.265625 607.558594 C 996.863281 607.921875 996.488281 608.296875 996.125 608.699219 C 987.570312 605.5625 978.625 603.636719 969.726562 601.988281 C 967.839844 601.628906 965.925781 601.332031 964.039062 600.96875 C 967.375 593.097656 973.085938 586.441406 980.355469 581.984375 Z M 446.761719 606.03125 L 457.707031 608.738281 L 470.964844 616.230469 L 445.703125 623.445312 C 445.382812 621.359375 445.230469 619.277344 445.230469 617.171875 C 445.230469 613.414062 445.757812 609.644531 446.761719 606.03125 Z M 962.273438 606.03125 L 973.21875 608.738281 L 986.476562 616.230469 L 961.214844 623.445312 C 960.875 621.359375 960.703125 619.277344 960.703125 617.171875 C 960.703125 613.414062 961.269531 609.644531 962.273438 606.03125 Z M 527.527344 610.855469 C 527.851562 612.945312 528 615.0625 528 617.171875 C 528 620.945312 527.472656 624.675781 526.46875 628.3125 L 515.527344 625.566406 L 502.265625 618.074219 Z M 1043 610.855469 C 1043.324219 612.945312 1043.472656 615.0625 1043.472656 617.171875 C 1043.472656 620.945312 1042.96875 624.675781 1041.941406 628.3125 L 1031 625.566406 L 1017.738281 618.074219 Z M 476.964844 621.996094 C 477.328125 622.398438 477.703125 622.769531 478.105469 623.132812 C 474.972656 631.667969 473.082031 640.636719 471.433594 649.53125 C 471.09375 651.417969 470.757812 653.332031 470.414062 655.21875 C 462.542969 651.867188 455.910156 646.171875 451.429688 638.902344 L 455.628906 632.820312 Z M 992.4375 621.996094 C 992.800781 622.398438 993.175781 622.769531 993.578125 623.132812 C 990.445312 631.667969 988.554688 640.636719 986.90625 649.53125 C 986.546875 651.417969 986.25 653.332031 985.886719 655.21875 C 978.035156 651.867188 971.402344 646.171875 966.941406 638.902344 L 971.140625 632.820312 Z M 492.617188 625.644531 C 501.152344 628.777344 510.121094 630.703125 519.015625 632.351562 C 520.90625 632.710938 522.796875 633.007812 524.664062 633.371094 C 521.3125 641.222656 515.636719 647.839844 508.386719 652.316406 L 502.226562 648.121094 L 491.441406 626.820312 C 491.863281 626.457031 492.234375 626.066406 492.617188 625.644531 Z M 1008.089844 625.644531 C 1016.644531 628.777344 1025.59375 630.703125 1034.488281 632.351562 C 1036.398438 632.710938 1038.269531 633.007812 1040.175781 633.371094 C 1036.824219 641.222656 1031.128906 647.859375 1023.859375 652.316406 L 1017.777344 648.121094 L 1006.953125 626.78125 C 1007.355469 626.4375 1007.730469 626.046875 1008.089844 625.644531 Z M 485.714844 632.78125 L 492.890625 658.042969 C 490.804688 658.386719 488.726562 658.554688 486.617188 658.554688 C 482.839844 658.554688 479.070312 658.046875 475.4375 657.023438 L 478.183594 646.039062 Z M 1001.1875 632.78125 L 1008.402344 658.042969 C 1006.316406 658.386719 1004.199219 658.554688 1002.089844 658.554688 C 998.3125 658.535156 994.601562 658.007812 990.988281 656.984375 L 993.695312 646.039062 Z M 1001.1875 632.78125 " fill-opacity="1" fill-rule="nonzero"/></g><path fill="#ffffff" d="M 646.34375 194.191406 C 620.296875 194.191406 599.273438 215.214844 599.273438 241.265625 L 599.273438 264.410156 C 597.96875 264.75 596.597656 265.027344 595.3125 265.390625 C 586.152344 267.679688 579.699219 276.074219 579.699219 285.511719 L 579.699219 340.546875 C 579.699219 360.128906 595.460938 375.851562 615.042969 375.851562 L 677.648438 375.851562 C 697.230469 375.851562 712.953125 360.128906 712.953125 340.546875 L 712.953125 285.511719 C 712.953125 276.074219 706.535156 267.679688 697.378906 265.390625 C 696.09375 265.027344 694.722656 264.75 693.417969 264.410156 L 693.417969 241.265625 C 693.417969 215.214844 672.394531 194.191406 646.34375 194.191406 Z M 646.34375 213.925781 C 661.828125 213.925781 673.6875 225.78125 673.6875 241.265625 L 673.6875 260.367188 C 665.25 259.121094 656.574219 258.390625 647.835938 258.25 L 647.835938 258.210938 L 644.855469 258.210938 L 644.855469 258.25 C 636.117188 258.371094 627.441406 259.121094 619.003906 260.367188 L 619.003906 241.265625 C 618.984375 225.800781 630.859375 213.925781 646.34375 213.925781 Z M 646.148438 286.609375 L 646.503906 286.609375 C 653.671875 286.792969 659.40625 292.640625 659.40625 299.828125 C 659.40625 303.183594 658.128906 306.402344 655.839844 308.851562 L 655.878906 308.851562 C 654.972656 309.835938 654.425781 311.132812 654.425781 312.5 C 654.425781 313 654.5 313.546875 654.660156 314.03125 L 660.742188 337.09375 C 661.644531 340.589844 658.984375 344.039062 655.367188 344.039062 L 637.324219 344.039062 C 633.707031 344.039062 631.046875 340.589844 631.949219 337.09375 L 638.03125 314.03125 C 638.171875 313.546875 638.226562 313 638.226562 312.5 C 638.226562 311.152344 637.71875 309.855469 636.8125 308.851562 C 634.523438 306.402344 633.242188 303.164062 633.242188 299.828125 C 633.222656 292.660156 638.980469 286.792969 646.148438 286.609375 Z M 646.148438 286.609375 " fill-opacity="1" fill-rule="nonzero"/><path fill="#ffffff" d="M 748.097656 411.78125 C 745.003906 414.191406 741.683594 416.300781 738.449219 418.488281 C 736.820312 419.675781 735.171875 420.816406 733.507812 421.941406 C 733.324219 422.0625 733.15625 422.171875 732.996094 422.292969 C 763.421875 425.667969 793.328125 433.125 821.6875 444.613281 C 852.414062 457.085938 881.390625 474.039062 907.316406 494.667969 C 908.582031 495.730469 908.734375 497.597656 907.710938 498.863281 C 907.148438 499.566406 906.28125 499.980469 905.355469 499.960938 L 732.644531 495.292969 L 713.65625 433.394531 C 707.171875 436.488281 700.40625 439.03125 693.457031 441.242188 L 700.753906 494.429688 L 547.179688 490.273438 L 577.503906 432.570312 C 568.125 428.09375 559.105469 422.96875 550.789062 416.800781 C 512.230469 423.410156 473.824219 432.84375 438.878906 450.457031 C 424.679688 457.609375 411.03125 466.054688 395.847656 470.109375 C 380.601562 474.1875 364.503906 473.652344 348.578125 474.898438 C 342.332031 475.378906 336.113281 476.1875 329.945312 477.25 C 324.242188 477.914062 319.941406 482.765625 319.941406 488.507812 C 319.941406 489.050781 319.960938 489.574219 320.0625 490.117188 C 320.140625 490.980469 320.273438 491.800781 320.375 492.667969 C 321.296875 501 322.054688 509.378906 321.472656 517.652344 C 320.890625 525.929688 318.828125 534.199219 314.453125 541.1875 C 309.851562 548.5 302.683594 554.296875 298.566406 562.332031 C 295.855469 567.554688 294.660156 573.453125 294.722656 579.316406 C 294.761719 585.179688 296.085938 590.996094 298.132812 596.457031 C 301.167969 604.492188 305.976562 612 312.6875 617.484375 C 318.289062 622.082031 325.039062 625.125 331.945312 627.09375 C 338.855469 629.0625 345.941406 629.996094 353.011719 630.859375 C 374.21875 633.453125 395.523438 635.023438 416.871094 635.683594 C 415.265625 629.640625 414.480469 623.417969 414.480469 617.171875 C 414.480469 577.324219 446.75 544.992188 486.617188 544.992188 L 486.65625 544.992188 C 526.5 544.992188 558.832031 577.304688 558.832031 617.171875 C 558.832031 623.457031 558.007812 629.699219 556.398438 635.761719 L 932.382812 635.761719 C 930.777344 629.699219 929.953125 623.457031 929.953125 617.171875 C 929.953125 577.324219 962.222656 545.015625 1002.089844 544.992188 C 1041.933594 544.992188 1074.265625 577.304688 1074.265625 617.171875 C 1074.265625 623.457031 1073.441406 629.699219 1071.832031 635.761719 L 1155.699219 635.761719 C 1168.171875 635.761719 1178.332031 625.601562 1178.332031 613.128906 L 1178.332031 613.089844 C 1178.613281 603.914062 1178.210938 594.691406 1177.507812 585.554688 C 1176.566406 573.664062 1174.957031 561.253906 1168.328125 551.113281 C 1164.070312 544.625 1158.011719 539.496094 1151.421875 535.5 C 1144.835938 531.523438 1137.722656 528.625 1130.671875 525.8125 C 1109.765625 517.457031 1088.527344 509.796875 1066.65625 504.433594 C 1021.886719 493.488281 975.554688 492.316406 929.480469 492.195312 C 900.097656 467.671875 866.828125 447.90625 831.21875 433.867188 C 804.46875 423.300781 776.457031 416.300781 748.097656 411.78125 Z M 561.851562 434.769531 L 532.902344 489.921875 L 487.164062 488.625 C 485.519531 488.585938 484.222656 487.253906 484.261719 485.605469 C 484.28125 484.863281 484.601562 484.128906 485.125 483.566406 C 488.4375 480.191406 491.828125 476.929688 495.363281 473.796875 C 514.664062 456.585938 537.410156 443.324219 561.851562 434.769531 Z M 563.5 517.691406 L 595.3125 517.691406 C 598.925781 517.691406 601.863281 520.609375 601.863281 524.203125 C 601.863281 527.800781 598.925781 530.753906 595.3125 530.753906 L 563.5 530.753906 C 559.882812 530.753906 556.949219 527.820312 556.949219 524.203125 C 556.949219 520.589844 559.882812 517.691406 563.5 517.691406 Z M 755.160156 519.96875 L 787.011719 519.96875 C 790.625 519.96875 793.523438 522.882812 793.523438 526.480469 C 793.523438 530.074219 790.605469 533.03125 787.011719 533.03125 L 755.160156 533.03125 C 751.542969 533.03125 748.648438 530.09375 748.648438 526.480469 C 748.648438 522.863281 751.542969 519.96875 755.160156 519.96875 Z M 1103.292969 538.363281 L 1106.039062 538.363281 C 1114.03125 538.523438 1122.367188 538.96875 1130.359375 541.621094 C 1136.003906 543.46875 1141.5 546.4375 1145.695312 551.035156 C 1150.015625 555.734375 1152.453125 561.929688 1152.875 568.214844 C 1152.996094 570.0625 1151.644531 571.664062 1149.816406 571.902344 C 1149.351562 571.964844 1148.945312 572.058594 1148.402344 572.136719 C 1140.46875 573.164062 1132.121094 573.710938 1123.925781 571.902344 C 1114.867188 569.933594 1106.734375 565.285156 1099.644531 559.742188 C 1095.125 556.207031 1091.003906 552.273438 1087.25 547.976562 C 1085.984375 546.527344 1086.097656 544.335938 1087.5625 543.070312 C 1087.601562 543.011719 1087.679688 542.9375 1087.757812 542.875 C 1089.847656 541.328125 1092.230469 540.109375 1094.78125 539.382812 C 1097.652344 538.542969 1100.542969 538.386719 1103.292969 538.363281 Z M 1103.292969 538.363281 " fill-opacity="1" fill-rule="nonzero"/><path fill="#ffffff" d="M 798.925781 319.71875 C 797.660156 325.765625 795.992188 331.648438 794.066406 337.414062 L 831.683594 337.414062 L 831.683594 379.628906 C 831.683594 382.140625 832.789062 384.390625 834.476562 385.976562 C 834.476562 386.15625 834.574219 386.316406 834.714844 386.398438 L 871.046875 412.085938 C 868.535156 422.046875 872.371094 432.53125 880.769531 438.453125 C 891.953125 446.347656 907.398438 443.71875 915.332031 432.53125 C 923.265625 421.34375 920.613281 405.859375 909.425781 397.945312 C 909.40625 397.945312 909.40625 397.945312 909.40625 397.945312 C 901.011719 392.019531 889.804688 391.902344 881.289062 397.625 L 849.476562 375.109375 L 849.476562 328.554688 C 849.476562 326.105469 848.453125 323.917969 846.847656 322.308594 C 846.304688 321.789062 845.703125 321.488281 845.199219 321.164062 C 844.917969 320.984375 844.578125 320.644531 844.015625 320.421875 C 842.949219 319.980469 841.785156 319.71875 840.558594 319.71875 Z M 798.925781 319.71875 " fill-opacity="1" fill-rule="nonzero"/><path fill="#ffffff" d="M 452.136719 319.71875 C 450.914062 319.71875 449.707031 319.980469 448.644531 320.421875 C 448.101562 320.644531 447.78125 320.984375 447.5 321.164062 C 446.996094 321.488281 446.394531 321.769531 445.851562 322.308594 C 444.246094 323.917969 443.222656 326.085938 443.222656 328.554688 L 443.222656 375.109375 L 411.40625 397.625 C 402.871094 391.878906 391.664062 392 383.25 397.945312 C 372.0625 405.859375 369.414062 421.324219 377.324219 432.53125 C 377.324219 432.550781 377.324219 432.550781 377.324219 432.550781 C 385.238281 443.738281 400.722656 446.386719 411.910156 438.476562 C 420.324219 432.550781 424.179688 422.046875 421.652344 412.085938 L 457.941406 386.4375 C 458.082031 386.335938 458.164062 386.175781 458.183594 386.015625 C 459.851562 384.410156 460.976562 382.179688 460.976562 379.667969 L 460.976562 337.453125 L 498.050781 337.453125 C 497.789062 336.691406 497.46875 336.007812 497.226562 335.265625 C 496.484375 333.074219 496.242188 330.984375 496.242188 329.058594 C 496.242188 325.542969 497.707031 322.53125 499.535156 319.757812 L 452.136719 319.757812 Z M 452.136719 319.71875 " fill-opacity="1" fill-rule="nonzero"/><path fill="#ffffff" d="M 544.625 305.359375 L 544.90625 305.558594 L 544.90625 305.519531 C 544.785156 305.441406 544.683594 305.398438 544.625 305.359375 Z M 544.625 305.359375 " fill-opacity="1" fill-rule="nonzero"/><path fill="#ffffff" d="M 544.90625 269.148438 L 544.625 269.347656 C 544.664062 269.328125 544.785156 269.269531 544.90625 269.1875 Z M 544.90625 269.148438 " fill-opacity="1" fill-rule="nonzero"/><path fill="#ffffff" d="M 782.941406 263.082031 C 780.851562 263.121094 778.621094 264.167969 777.214844 265.714844 L 749.359375 296.261719 C 747.25 298.589844 746.808594 303.128906 748.457031 305.839844 C 750.101562 308.550781 754.300781 310.238281 757.351562 309.457031 L 772.335938 305.539062 C 763.5 367.257812 710.578125 414.757812 646.410156 414.757812 C 591.140625 414.757812 542.175781 379.085938 525.203125 326.488281 C 524.039062 321.988281 519.960938 318.875 515.320312 318.875 C 509.71875 318.875 505.179688 323.433594 505.160156 329.039062 C 505.160156 330.203125 505.320312 331.328125 505.703125 332.414062 C 525.304688 393.585938 582.160156 435.101562 646.410156 435.101562 C 721.925781 435.101562 784.085938 378.425781 792.960938 305.300781 L 808.886719 309.457031 C 811.941406 310.257812 816.136719 308.550781 817.785156 305.839844 C 819.433594 303.128906 818.96875 298.609375 816.839844 296.261719 L 789.023438 265.714844 C 787.660156 264.207031 785.492188 263.183594 783.460938 263.082031 C 783.742188 263.082031 783.140625 263.082031 783.039062 263.082031 C 783.019531 263.082031 782.980469 263.082031 782.941406 263.082031 Z M 782.941406 263.082031 " fill-opacity="1" fill-rule="nonzero"/><path fill="#ffffff" d="M 906.054688 262.558594 C 895.769531 262.558594 886.59375 268.886719 882.917969 278.488281 L 812.785156 278.488281 L 823.488281 290.214844 C 825.214844 292.125 826.121094 294.152344 826.742188 296.222656 L 882.917969 296.222656 C 886.59375 305.820312 895.789062 312.167969 906.054688 312.1875 C 919.75 312.1875 930.878906 301.101562 930.878906 287.402344 C 930.878906 287.402344 930.878906 287.382812 930.878906 287.363281 C 930.898438 273.648438 919.769531 262.558594 906.054688 262.558594 Z M 906.054688 262.558594 " fill-opacity="1" fill-rule="nonzero"/><path fill="#ffffff" d="M 386.585938 262.558594 C 372.886719 262.558594 361.800781 273.667969 361.800781 287.34375 C 361.800781 301.042969 372.886719 312.167969 386.585938 312.167969 C 396.867188 312.167969 406.105469 305.820312 409.761719 296.199219 L 479.855469 296.199219 L 469.210938 284.492188 C 467.480469 282.585938 466.597656 280.554688 465.957031 278.488281 L 409.78125 278.488281 C 406.085938 268.886719 396.867188 262.558594 386.585938 262.558594 Z M 386.585938 262.558594 " fill-opacity="1" fill-rule="nonzero"/><path fill="#ffffff" d="M 646.230469 139.628906 C 570.714844 139.628906 508.554688 196.304688 499.675781 269.429688 L 483.789062 265.3125 C 480.738281 264.507812 476.480469 266.214844 474.851562 268.925781 C 473.226562 271.636719 473.667969 276.15625 475.796875 278.507812 L 503.613281 309.035156 C 504.980469 310.539062 507.148438 311.566406 509.175781 311.664062 C 508.894531 311.664062 509.496094 311.664062 509.597656 311.664062 C 509.636719 311.664062 509.699219 311.664062 509.757812 311.664062 C 511.847656 311.625 514.078125 310.582031 515.484375 309.035156 L 543.300781 278.507812 C 545.429688 276.175781 545.828125 271.636719 544.203125 268.925781 C 542.574219 266.214844 538.359375 264.527344 535.304688 265.3125 L 520.324219 269.1875 C 529.160156 207.46875 582.082031 160.011719 646.25 160.011719 C 701.519531 160.011719 750.503906 195.640625 767.496094 248.242188 C 768.660156 252.738281 772.71875 255.851562 777.335938 255.851562 C 782.941406 255.851562 787.5 251.332031 787.5 245.730469 C 787.5 244.566406 787.378906 243.402344 786.996094 242.316406 C 767.375 181.140625 710.476562 139.628906 646.230469 139.628906 Z M 646.230469 139.628906 " fill-opacity="1" fill-rule="nonzero"/><g clip-path="url(#39d5069596)"><path fill="#ffffff" d="M 894.363281 131.753906 C 889.484375 131.875 884.746094 133.441406 880.746094 136.273438 C 872.351562 142.199219 868.515625 152.683594 871.027344 162.644531 L 834.695312 188.371094 C 834.554688 188.472656 834.453125 188.632812 834.453125 188.792969 C 832.769531 190.398438 831.664062 192.589844 831.664062 195.097656 L 831.664062 237.316406 L 794.589844 237.316406 C 794.847656 238.078125 795.171875 238.800781 795.410156 239.542969 C 796.15625 241.734375 796.4375 243.824219 796.4375 245.75 C 796.4375 249.265625 794.988281 252.277344 793.140625 255.050781 L 840.519531 255.050781 C 841.746094 255.050781 842.910156 254.789062 843.972656 254.347656 C 844.515625 254.125 844.878906 253.785156 845.160156 253.601562 C 845.660156 253.28125 846.265625 253 846.804688 252.457031 C 848.414062 250.851562 849.4375 248.640625 849.4375 246.171875 L 849.4375 199.617188 L 881.25 177.144531 C 889.804688 182.867188 900.972656 182.726562 909.367188 176.78125 C 920.554688 168.871094 923.183594 153.40625 915.292969 142.21875 C 910.53125 135.449219 902.679688 131.511719 894.363281 131.753906 Z M 894.363281 131.753906 " fill-opacity="1" fill-rule="nonzero"/></g><g clip-path="url(#c37fcb3138)"><path fill="#ffffff" d="M 396.425781 131.753906 C 388.792969 132.117188 381.746094 135.972656 377.324219 142.21875 C 369.433594 153.40625 372.082031 168.871094 383.25 176.78125 C 391.644531 182.726562 402.871094 182.867188 411.40625 177.144531 L 443.222656 199.617188 L 443.222656 246.171875 C 443.222656 248.621094 444.246094 250.851562 445.851562 252.457031 C 446.394531 252.980469 446.996094 253.28125 447.5 253.601562 C 447.78125 253.785156 448.101562 254.125 448.644531 254.347656 C 449.707031 254.789062 450.914062 255.050781 452.136719 255.050781 L 493.75 255.050781 C 495.015625 249.003906 496.683594 243.078125 498.613281 237.316406 L 460.953125 237.316406 L 460.953125 195.097656 C 460.953125 192.589844 459.851562 190.378906 458.164062 188.792969 C 458.164062 188.613281 458.0625 188.449219 457.921875 188.371094 L 421.652344 162.664062 C 424.179688 152.703125 420.324219 142.199219 411.929688 136.273438 C 407.410156 133.058594 401.949219 131.472656 396.425781 131.753906 Z M 396.425781 131.753906 " fill-opacity="1" fill-rule="nonzero"/></g></svg>