<svg xmlns="http://www.w3.org/2000/svg" xmlns:xlink="http://www.w3.org/1999/xlink" width="1920" zoomAndPan="magnify" viewBox="0 0 1440 809.999993" height="1080" preserveAspectRatio="xMidYMid meet" version="1.0"><defs><clipPath id="ed410164c2"><path d="M 232 98 L 1127.960938 98 L 1127.960938 660 L 232 660 Z M 232 98 " clip-rule="nonzero"/></clipPath></defs><g clip-path="url(#ed410164c2)"><path fill="#ffffff" d="M 1115.730469 343.324219 L 1076.625 337.0625 C 1074.613281 331.03125 1072.171875 325.148438 1069.324219 319.453125 L 1092.554688 287.367188 C 1096.714844 281.617188 1096.085938 273.699219 1091.070312 268.679688 L 1059.492188 237.097656 C 1054.46875 232.082031 1046.546875 231.449219 1040.800781 235.613281 L 1008.714844 258.84375 C 1003.019531 255.992188 997.136719 253.550781 991.105469 251.539062 L 984.847656 212.4375 C 983.726562 205.429688 977.679688 200.273438 970.582031 200.273438 L 925.925781 200.273438 C 918.828125 200.273438 912.78125 205.429688 911.660156 212.4375 L 905.398438 251.539062 C 899.371094 253.550781 893.484375 255.992188 887.789062 258.84375 L 855.703125 235.613281 C 849.957031 231.449219 842.039062 232.085938 837.015625 237.097656 L 805.4375 268.679688 C 800.421875 273.695312 799.789062 281.617188 803.953125 287.367188 L 827.183594 319.453125 C 824.332031 325.148438 821.890625 331.03125 819.878906 337.0625 L 780.773438 343.324219 C 773.765625 344.445312 768.613281 350.492188 768.613281 357.585938 L 768.613281 402.246094 C 768.613281 409.339844 773.765625 415.386719 780.773438 416.507812 L 819.878906 422.769531 C 821.894531 428.804688 824.332031 434.6875 827.183594 440.378906 L 803.953125 472.464844 C 799.789062 478.214844 800.421875 486.132812 805.4375 491.152344 L 837.015625 522.730469 C 842.035156 527.75 849.957031 528.382812 855.703125 524.214844 L 887.789062 500.988281 C 893.484375 503.835938 899.367188 506.277344 905.398438 508.289062 L 911.660156 547.394531 C 912.78125 554.402344 918.828125 559.554688 925.925781 559.554688 L 970.582031 559.554688 C 977.679688 559.554688 983.726562 554.402344 984.847656 547.394531 L 991.105469 508.289062 C 997.140625 506.273438 1003.023438 503.832031 1008.714844 500.984375 L 1040.800781 524.214844 C 1046.546875 528.378906 1054.46875 527.75 1059.492188 522.730469 L 1091.070312 491.152344 C 1096.085938 486.136719 1096.71875 478.210938 1092.554688 472.464844 L 1069.324219 440.378906 C 1072.175781 434.683594 1074.617188 428.800781 1076.628906 422.769531 L 1115.730469 416.507812 C 1122.742188 415.386719 1127.894531 409.339844 1127.894531 402.246094 L 1127.894531 357.585938 C 1127.894531 350.488281 1122.738281 344.445312 1115.730469 343.324219 Z M 1099 389.929688 L 1063.070312 395.679688 C 1057.386719 396.589844 1052.785156 400.789062 1051.359375 406.367188 C 1048.871094 416.09375 1045 425.429688 1039.855469 434.105469 C 1036.917969 439.058594 1037.203125 445.28125 1040.578125 449.945312 L 1061.925781 479.433594 L 1047.765625 493.589844 L 1018.28125 472.242188 C 1013.621094 468.867188 1007.394531 468.582031 1002.4375 471.519531 C 993.769531 476.660156 984.4375 480.53125 974.699219 483.023438 C 969.125 484.449219 964.925781 489.050781 964.015625 494.730469 L 958.265625 530.664062 L 938.242188 530.664062 L 932.488281 494.734375 C 931.578125 489.050781 927.378906 484.449219 921.800781 483.023438 C 912.070312 480.53125 902.738281 476.664062 894.066406 471.519531 C 889.113281 468.582031 882.886719 468.867188 878.226562 472.242188 L 848.738281 493.589844 L 834.578125 479.429688 L 855.929688 449.945312 C 859.304688 445.28125 859.589844 439.054688 856.652344 434.101562 C 851.511719 425.4375 847.644531 416.105469 845.148438 406.367188 C 843.722656 400.789062 839.121094 396.59375 833.4375 395.683594 L 797.507812 389.929688 L 797.507812 369.90625 L 833.441406 364.152344 C 839.125 363.242188 843.726562 359.042969 845.152344 353.464844 C 847.640625 343.730469 851.507812 334.402344 856.652344 325.734375 C 859.589844 320.78125 859.304688 314.554688 855.929688 309.890625 L 834.578125 280.402344 L 848.738281 266.242188 L 878.222656 287.589844 C 882.886719 290.96875 889.109375 291.25 894.0625 288.316406 C 902.738281 283.167969 912.074219 279.300781 921.800781 276.8125 C 927.378906 275.386719 931.578125 270.785156 932.488281 265.101562 L 938.242188 229.171875 L 958.265625 229.171875 L 964.015625 265.101562 C 964.925781 270.785156 969.125 275.386719 974.703125 276.8125 C 984.429688 279.300781 993.761719 283.171875 1002.4375 288.316406 C 1007.394531 291.253906 1013.617188 290.972656 1018.28125 287.59375 L 1047.765625 266.242188 L 1061.925781 280.402344 L 1040.578125 309.890625 C 1037.203125 314.554688 1036.917969 320.777344 1039.855469 325.730469 C 1044.996094 334.402344 1048.867188 343.734375 1051.355469 353.46875 C 1052.78125 359.046875 1057.382812 363.242188 1063.066406 364.152344 L 1099 369.90625 Z M 948.25 295.910156 C 901.933594 295.910156 864.246094 333.597656 864.246094 379.917969 C 864.246094 426.238281 901.929688 463.921875 948.25 463.921875 C 994.570312 463.921875 1032.253906 426.238281 1032.253906 379.917969 C 1032.253906 333.597656 994.570312 295.910156 948.25 295.910156 Z M 948.25 435.027344 C 917.863281 435.027344 893.140625 410.304688 893.140625 379.914062 C 893.140625 349.523438 917.863281 324.804688 948.25 324.804688 C 978.636719 324.804688 1003.363281 349.523438 1003.363281 379.914062 C 1003.363281 410.304688 978.640625 435.027344 948.25 435.027344 Z M 418.535156 166.878906 L 418.535156 137.820312 C 418.535156 129.839844 425.003906 123.371094 432.980469 123.371094 C 440.957031 123.371094 447.425781 129.839844 447.425781 137.820312 L 447.425781 166.878906 C 447.425781 174.855469 440.957031 181.324219 432.980469 181.324219 C 425.003906 181.324219 418.535156 174.855469 418.535156 166.878906 Z M 312.890625 173.867188 C 308.898438 166.957031 311.269531 158.121094 318.179688 154.128906 C 325.09375 150.144531 333.921875 152.511719 337.914062 159.417969 L 352.445312 184.585938 C 356.433594 191.496094 354.0625 200.332031 347.15625 204.324219 C 344.878906 205.636719 342.394531 206.257812 339.945312 206.257812 C 334.949219 206.257812 330.097656 203.667969 327.417969 199.035156 Z M 284.324219 267.152344 C 281.648438 271.785156 276.789062 274.375 271.796875 274.375 C 269.347656 274.375 266.863281 273.75 264.589844 272.4375 L 239.421875 257.90625 C 232.511719 253.917969 230.144531 245.082031 234.136719 238.171875 C 238.121094 231.261719 246.960938 228.894531 253.871094 232.882812 L 279.035156 247.417969 C 285.945312 251.40625 288.3125 260.242188 284.324219 267.152344 Z M 513.515625 184.585938 L 528.046875 159.421875 C 532.035156 152.511719 540.871094 150.140625 547.78125 154.132812 C 554.691406 158.125 557.058594 166.960938 553.070312 173.867188 L 538.539062 199.035156 C 535.863281 203.667969 531.007812 206.257812 526.011719 206.257812 C 523.5625 206.257812 521.078125 205.632812 518.804688 204.320312 C 511.894531 200.332031 509.527344 191.496094 513.515625 184.585938 Z M 581.632812 267.152344 C 577.640625 260.242188 580.011719 251.40625 586.921875 247.414062 L 612.089844 232.882812 C 619 228.898438 627.832031 231.265625 631.824219 238.175781 C 635.8125 245.082031 633.445312 253.917969 626.535156 257.910156 L 601.367188 272.441406 C 599.09375 273.753906 596.605469 274.375 594.160156 274.375 C 589.164062 274.375 584.308594 271.785156 581.632812 267.152344 Z M 824.691406 569.296875 C 804.851562 569.296875 787.972656 582.167969 781.933594 599.992188 L 675.304688 599.992188 L 675.304688 457.949219 C 675.304688 449.972656 668.835938 443.503906 660.859375 443.503906 L 530.472656 443.503906 C 535.648438 427.789062 542.203125 416.578125 548.644531 405.570312 C 550.792969 401.902344 552.949219 398.203125 555.035156 394.363281 L 666.488281 394.363281 C 672.53125 412.191406 689.410156 425.0625 709.246094 425.0625 C 734.140625 425.0625 754.390625 404.808594 754.390625 379.917969 C 754.390625 355.023438 734.140625 334.773438 709.246094 334.773438 C 689.410156 334.773438 672.527344 347.644531 666.488281 365.472656 L 566.800781 365.472656 C 569.265625 356 570.796875 345.097656 570.796875 331.949219 C 570.796875 326.046875 570.382812 320.242188 569.65625 314.535156 L 660.859375 314.535156 C 668.835938 314.535156 675.304688 308.066406 675.304688 300.085938 L 675.304688 158.042969 L 781.933594 158.042969 C 787.972656 175.871094 804.851562 188.742188 824.691406 188.742188 C 849.582031 188.742188 869.835938 168.488281 869.835938 143.597656 C 869.835938 118.703125 849.582031 98.453125 824.691406 98.453125 C 804.851562 98.453125 787.972656 111.324219 781.933594 129.152344 L 660.859375 129.152344 C 652.878906 129.152344 646.414062 135.617188 646.414062 143.597656 L 646.414062 285.640625 L 562.769531 285.640625 C 543.703125 232.363281 492.730469 194.132812 432.980469 194.132812 C 356.988281 194.132812 295.164062 255.957031 295.164062 331.949219 C 295.164062 367.710938 306.425781 386.957031 317.316406 405.570312 C 329.386719 426.191406 341.859375 447.519531 344.871094 497.84375 L 344.871094 517.417969 C 344.871094 531.539062 353.410156 543.691406 365.589844 549.023438 L 365.589844 557.515625 C 365.589844 571.574219 374.058594 583.675781 386.152344 589.042969 L 386.152344 597.613281 C 386.152344 616.632812 401.625 632.109375 420.648438 632.109375 L 446.664062 632.109375 C 465.683594 632.109375 481.160156 616.632812 481.160156 597.613281 L 481.160156 589.042969 C 493.25 583.675781 501.71875 571.574219 501.71875 557.515625 L 501.71875 548.375 C 513.171875 542.761719 521.097656 531.011719 521.097656 517.417969 L 521.097656 497.84375 C 521.660156 488.402344 522.558594 479.980469 523.726562 472.394531 L 646.414062 472.394531 L 646.414062 614.4375 C 646.414062 622.414062 652.882812 628.882812 660.863281 628.882812 L 781.9375 628.882812 C 787.976562 646.710938 804.855469 659.582031 824.695312 659.582031 C 849.585938 659.582031 869.839844 639.332031 869.839844 614.4375 C 869.835938 589.546875 849.582031 569.296875 824.691406 569.296875 Z M 709.246094 363.664062 C 718.207031 363.664062 725.496094 370.957031 725.496094 379.917969 C 725.496094 388.878906 718.207031 396.167969 709.246094 396.167969 C 700.285156 396.167969 692.996094 388.878906 692.996094 379.917969 C 692.996094 370.957031 700.285156 363.664062 709.246094 363.664062 Z M 824.691406 127.34375 C 833.652344 127.34375 840.941406 134.636719 840.941406 143.597656 C 840.941406 152.558594 833.652344 159.847656 824.691406 159.847656 C 815.730469 159.847656 808.441406 152.558594 808.441406 143.597656 C 808.441406 134.636719 815.730469 127.34375 824.691406 127.34375 Z M 324.054688 331.949219 C 324.054688 271.890625 372.917969 223.027344 432.976562 223.027344 C 493.035156 223.027344 541.898438 271.890625 541.898438 331.949219 C 541.898438 359.882812 533.871094 373.605469 523.707031 390.976562 C 512.214844 410.613281 498.148438 434.660156 493.296875 482.925781 L 468.730469 482.925781 L 468.730469 375.976562 L 482.953125 375.976562 C 506.726562 375.976562 526.066406 356.632812 526.066406 332.859375 C 526.066406 309.085938 506.726562 289.742188 482.953125 289.742188 C 459.179688 289.742188 439.835938 309.085938 439.835938 332.859375 L 439.835938 347.082031 L 426.121094 347.082031 L 426.121094 332.859375 C 426.121094 309.085938 406.777344 289.742188 383.003906 289.742188 C 359.230469 289.742188 339.890625 309.085938 339.890625 332.859375 C 339.890625 356.632812 359.230469 375.976562 383.003906 375.976562 L 397.226562 375.976562 L 397.226562 482.925781 L 372.660156 482.925781 C 367.808594 434.660156 353.738281 410.613281 342.25 390.976562 C 332.082031 373.601562 324.054688 359.882812 324.054688 331.949219 Z M 467.21875 563.117188 L 400.082031 563.117188 C 397.042969 563.117188 394.480469 560.554688 394.480469 557.515625 L 394.480469 551.914062 L 472.816406 551.914062 L 472.816406 557.515625 C 472.816406 560.554688 470.253906 563.117188 467.21875 563.117188 Z M 486.597656 523.019531 L 379.363281 523.019531 C 376.324219 523.019531 373.761719 520.457031 373.761719 517.417969 L 373.761719 511.816406 L 492.195312 511.816406 L 492.195312 517.417969 C 492.199219 520.457031 489.632812 523.019531 486.597656 523.019531 Z M 397.230469 347.082031 L 383.007812 347.082031 C 375.164062 347.082031 368.785156 340.703125 368.785156 332.859375 C 368.785156 325.015625 375.164062 318.636719 383.007812 318.636719 C 390.847656 318.636719 397.230469 325.015625 397.230469 332.859375 Z M 439.835938 482.925781 L 426.121094 482.925781 L 426.121094 375.976562 L 439.835938 375.976562 Z M 468.730469 347.082031 L 468.730469 332.859375 C 468.730469 325.015625 475.109375 318.636719 482.953125 318.636719 C 490.792969 318.636719 497.171875 325.015625 497.171875 332.859375 C 497.171875 340.703125 490.792969 347.082031 482.953125 347.082031 Z M 446.65625 603.214844 L 420.640625 603.214844 C 417.605469 603.214844 415.039062 600.648438 415.039062 597.613281 L 415.039062 592.007812 L 452.257812 592.007812 L 452.257812 597.613281 C 452.257812 600.648438 449.695312 603.214844 446.65625 603.214844 Z M 824.691406 630.691406 C 815.730469 630.691406 808.441406 623.402344 808.441406 614.4375 C 808.441406 605.480469 815.730469 598.1875 824.691406 598.1875 C 833.652344 598.1875 840.941406 605.480469 840.941406 614.4375 C 840.941406 623.402344 833.652344 630.691406 824.691406 630.691406 Z M 824.691406 630.691406 " fill-opacity="1" fill-rule="nonzero"/></g></svg>