<svg xmlns="http://www.w3.org/2000/svg" xmlns:xlink="http://www.w3.org/1999/xlink" width="1920" zoomAndPan="magnify" viewBox="0 0 1440 809.999993" height="1080" preserveAspectRatio="xMidYMid meet" version="1.0"><defs><clipPath id="43431f2567"><path d="M 533 137.175781 L 962 137.175781 L 962 711.675781 L 533 711.675781 Z M 533 137.175781 " clip-rule="nonzero"/></clipPath><clipPath id="2fe11250a4"><path d="M 519.421875 137.175781 L 949 137.175781 L 949 711.675781 L 519.421875 711.675781 Z M 519.421875 137.175781 " clip-rule="nonzero"/></clipPath></defs><g clip-path="url(#43431f2567)"><path fill="#ffffff" d="M 959.53125 302.714844 C 957.277344 294.152344 951.820312 287.75 943.160156 284.773438 C 939.441406 283.496094 935.503906 282.894531 931.757812 281.691406 C 924.226562 279.289062 917.585938 281.398438 911.601562 285.773438 C 903.710938 291.535156 898.679688 299.597656 894.769531 308.378906 C 890.191406 318.644531 889.367188 329.511719 890.28125 340.527344 C 891.132812 350.675781 895.453125 358.832031 904.777344 363.847656 C 905.332031 364.140625 905.65625 365.371094 905.644531 366.167969 C 905.617188 370.257812 905.164062 374.363281 905.40625 378.433594 C 905.628906 382.105469 904.507812 385.378906 903.730469 388.78125 C 901.796875 388.699219 900.132812 388.625 898.910156 388.570312 C 898.558594 395.015625 896.691406 400.761719 895.867188 407.105469 C 894.769531 406.226562 893.972656 405.597656 893.167969 404.949219 C 889.449219 401.972656 886.277344 403.15625 885.554688 407.855469 C 884.742188 413.097656 883.871094 418.296875 881.476562 423.144531 C 876.582031 433.023438 871.523438 442.761719 864.410156 451.316406 C 862.859375 453.1875 861.847656 455.824219 861.414062 458.246094 C 860.238281 464.804688 859.703125 471.480469 858.539062 478.050781 C 857.648438 483.082031 855.976562 488.242188 857.882812 493.070312 C 859.371094 496.851562 858.011719 499.542969 856.667969 502.578125 C 856.605469 502.71875 856.4375 502.855469 856.457031 502.976562 C 856.613281 504.09375 856.78125 505.207031 856.992188 506.316406 C 857.152344 507.128906 857.382812 507.925781 857.585938 508.730469 C 856.761719 508.90625 855.875 509.375 855.144531 509.199219 C 853.3125 508.746094 851.5625 508 849.777344 507.371094 C 845.699219 505.9375 844.996094 506.15625 842.519531 509.589844 C 841.851562 510.515625 841.128906 511.402344 840.445312 512.316406 C 833.222656 522.011719 826 531.714844 818.792969 541.417969 C 818.535156 541.769531 818.40625 542.210938 818.210938 542.621094 C 817.96875 542.5 817.71875 542.386719 817.480469 542.269531 C 816.582031 538.9375 815.59375 535.625 814.816406 532.269531 C 813.652344 527.199219 811.523438 522.261719 812.496094 516.886719 C 813.355469 512.113281 814.296875 507.359375 815.261719 502.605469 C 819.265625 482.765625 823.296875 462.933594 827.3125 443.09375 C 827.96875 439.832031 827.042969 437.5 824.167969 435.695312 C 822.972656 434.945312 821.597656 434.289062 820.21875 434.058594 C 808.988281 432.152344 797.75 430.367188 786.511719 428.527344 C 782.277344 427.832031 778.058594 427.058594 773.859375 426.324219 C 773.859375 425.550781 773.785156 425.234375 773.867188 424.964844 C 774.554688 422.800781 775.273438 420.65625 775.960938 418.492188 C 777.773438 412.730469 776.957031 410.757812 771.648438 407.992188 C 766.746094 405.441406 761.824219 402.914062 756.933594 400.355469 C 755.425781 399.566406 754.324219 398.476562 754.742188 396.542969 C 754.925781 396.347656 755.109375 396.144531 755.296875 395.949219 C 755.3125 395.785156 755.324219 395.628906 755.324219 395.46875 C 755.324219 395.628906 755.3125 395.785156 755.296875 395.949219 C 756.460938 395.042969 757.671875 394.195312 758.773438 393.214844 C 767.828125 385.175781 777.226562 377.582031 787.476562 371.089844 C 789.527344 369.792969 791.542969 368.425781 793.476562 366.964844 C 795.03125 365.777344 795.214844 364.28125 793.625 362.949219 C 791.65625 361.300781 789.714844 359.546875 787.53125 358.214844 C 782.574219 355.1875 777.464844 352.394531 772.25 349.398438 C 773.914062 345.632812 773.648438 341.554688 772.710938 337.402344 C 772.074219 334.570312 772.546875 331.964844 775.402344 330.296875 C 776.179688 329.84375 776.773438 329.097656 777.449219 328.484375 C 778.667969 327.386719 779.335938 326.285156 778.308594 324.5625 C 777.523438 323.25 777.53125 321.957031 779.261719 320.945312 C 781.75 319.503906 782.441406 317.257812 781.316406 314.507812 C 781 313.742188 780.816406 312.929688 780.601562 312.125 C 779.621094 308.421875 782.074219 304.363281 785.808594 303.640625 C 787.816406 303.253906 789.871094 303.050781 791.90625 302.808594 C 796.925781 302.21875 799.027344 298.777344 796.984375 294.234375 C 794.773438 289.332031 792.375 284.511719 790.175781 279.613281 C 787.882812 274.503906 785.746094 269.335938 783.46875 264.21875 C 782.71875 262.527344 783.347656 261.761719 784.921875 261.160156 C 787.390625 260.207031 789.851562 259.1875 792.199219 257.976562 C 793.300781 257.414062 794.144531 256.359375 795.539062 255.148438 C 793.476562 254.695312 792.191406 254.40625 790.371094 254.007812 C 794.023438 250.375 791.203125 246.71875 791.035156 242.835938 C 791.867188 242.835938 792.683594 242.78125 793.496094 242.84375 C 799.554688 243.363281 805.613281 243.863281 811.671875 244.453125 C 816.730469 244.945312 821.800781 245.480469 826.839844 246.128906 C 830.363281 246.582031 833.859375 247.277344 837.382812 247.792969 C 838.660156 247.976562 840.09375 248.5625 840.953125 246.839844 C 841.816406 245.121094 840.457031 244.511719 839.492188 243.769531 C 836.726562 241.632812 834 239.421875 831.085938 237.5 C 821.003906 230.820312 810.375 225.113281 799.425781 219.980469 C 796.167969 218.453125 793.96875 216.023438 792.914062 212.507812 C 790.257812 203.617188 787.863281 194.703125 783.617188 186.285156 C 780.480469 180.078125 778.910156 173.058594 776.753906 166.359375 C 774.535156 159.453125 772.554688 152.46875 770.296875 145.578125 C 768.929688 141.386719 765.8125 138.972656 761.472656 138.289062 C 759.523438 137.984375 757.535156 137.902344 755.554688 137.808594 C 742.496094 137.179688 729.527344 138.398438 716.632812 140.175781 C 698.808594 142.628906 681.261719 146.484375 664.144531 152.050781 C 657.242188 154.300781 650.40625 156.863281 643.785156 159.820312 C 637.585938 162.585938 634.257812 167.574219 634.488281 174.675781 C 634.644531 179.550781 634.488281 184.425781 634.515625 189.300781 C 634.601562 200.269531 634.71875 211.238281 634.804688 222.210938 C 634.832031 226.066406 634.710938 226.121094 630.964844 226.925781 C 622.519531 228.730469 614.027344 230.347656 605.675781 232.523438 C 601.253906 233.679688 597 235.628906 592.855469 237.628906 C 590.617188 238.699219 590.441406 240.449219 592.035156 242.34375 C 593.328125 243.890625 594.828125 245.417969 596.546875 246.433594 C 604.539062 251.140625 613.269531 253.492188 622.511719 253.859375 C 626.90625 254.035156 631.308594 253.890625 635.867188 253.890625 C 636.035156 256.820312 636.097656 259.625 636.386719 262.40625 C 636.523438 263.722656 636.929688 265.070312 637.503906 266.265625 C 638.660156 268.707031 640.269531 270.953125 641.242188 273.453125 C 643.671875 279.730469 645.855469 286.105469 648.132812 292.441406 C 648.316406 292.957031 648.457031 293.503906 648.667969 294.226562 C 647.964844 294.160156 647.511719 294.152344 647.078125 294.078125 C 638.613281 292.578125 630.1875 290.960938 621.511719 291.339844 C 615.332031 291.609375 614.964844 292.109375 616.441406 298.203125 C 617.617188 303.058594 618.828125 307.953125 619.375 312.890625 C 620.660156 324.730469 621.214844 336.660156 625.230469 348.046875 C 625.554688 348.953125 625.792969 350.035156 625.609375 350.941406 C 624.703125 355.289062 623.695312 359.628906 622.59375 363.929688 C 622.195312 365.492188 621.53125 366.890625 623.816406 367.453125 C 624.398438 367.601562 624.945312 367.925781 625.507812 368.175781 C 623.613281 369.792969 622.28125 370.644531 620.921875 371.476562 C 615.742188 374.648438 610.550781 377.710938 606.59375 382.585938 C 597.953125 393.214844 589.128906 403.703125 580.214844 414.097656 C 571.75 423.96875 564.96875 434.714844 561.808594 447.46875 C 557.671875 464.128906 553.417969 480.757812 549.515625 497.472656 C 545.066406 516.554688 540.941406 535.71875 536.683594 554.847656 C 535.558594 559.945312 534.34375 565.019531 533.429688 570.15625 C 532.910156 573.097656 534.011719 574.363281 537.046875 574.28125 C 539.832031 574.207031 542.605469 573.632812 545.363281 573.132812 C 548.894531 572.503906 552.398438 571.726562 556.175781 570.96875 C 552.863281 618.140625 550.652344 664.925781 549.941406 711.792969 C 655.449219 711.792969 760.625 711.792969 866.179688 711.792969 C 865.726562 684.792969 865.273438 657.960938 864.808594 630.851562 C 865.605469 631.257812 866.253906 631.589844 866.898438 631.921875 C 869.703125 633.375 872.429688 633.511719 874.945312 631.339844 C 876.148438 630.304688 877.480469 629.296875 878.359375 628.011719 C 880.089844 625.449219 881.550781 622.710938 883.113281 620.035156 C 884.910156 616.964844 886.535156 613.785156 888.582031 610.890625 C 889.285156 609.890625 891.253906 608.855469 892.242188 609.160156 C 895.019531 610 897.21875 609.308594 898.808594 607.320312 C 903.066406 601.992188 907.105469 596.488281 911.1875 591.023438 C 911.601562 590.464844 911.972656 589.503906 911.777344 588.921875 C 910.925781 586.324219 912.417969 584.824219 913.96875 583.148438 C 916.976562 579.929688 920.066406 576.742188 922.71875 573.242188 C 925.105469 570.109375 924.855469 569.628906 922.277344 566.585938 C 914.597656 557.53125 906.949219 548.445312 899.199219 539.445312 C 898.144531 538.214844 898.105469 537.441406 899.226562 536.429688 C 902.714844 533.269531 905.949219 529.761719 909.722656 526.988281 C 916.835938 521.761719 923.230469 515.925781 928.527344 508.832031 C 931.980469 504.214844 935.753906 499.839844 939.339844 495.316406 C 939.894531 494.625 940.40625 493.808594 940.644531 492.96875 C 941.265625 490.8125 942.015625 488.621094 942.164062 486.410156 C 942.292969 484.476562 942.078125 482.3125 941.3125 480.566406 C 940.15625 477.945312 938.257812 475.679688 936.910156 473.136719 C 935.640625 470.75 934.207031 468.289062 933.707031 465.699219 C 933.21875 463.148438 932.570312 460.902344 930.867188 458.941406 C 929.925781 457.847656 928.933594 456.71875 928.34375 455.433594 C 927.992188 454.675781 928.019531 453.351562 928.464844 452.675781 C 929.675781 450.847656 931.089844 449.117188 932.625 447.542969 C 935.207031 444.898438 932.46875 436.832031 928.066406 437.148438 C 925.542969 437.324219 922.988281 437.175781 919.84375 437.175781 C 922.933594 433.6875 925.605469 430.507812 928.464844 427.511719 C 930.121094 425.78125 930.554688 423.828125 930.128906 421.65625 C 928.953125 415.660156 924.515625 412.5 918.152344 413.023438 C 916.585938 413.15625 915.035156 413.339844 913.238281 413.515625 C 913.515625 412.230469 913.601562 411.230469 913.941406 410.332031 C 916.125 404.5625 914.800781 397.71875 919.511719 392.5 C 918.105469 391.992188 916.734375 391.605469 915.46875 391.003906 C 914.894531 390.734375 914.054688 389.976562 914.117188 389.570312 C 915.042969 384.011719 917.246094 378.847656 920.769531 374.585938 C 922.082031 372.992188 922.542969 371.949219 922.21875 370.171875 C 921.878906 368.296875 922.507812 367.257812 924.632812 367.417969 C 933.171875 368.074219 940.359375 364.667969 945.742188 358.566406 C 959.96875 342.460938 965.0625 323.710938 959.53125 302.714844 Z M 959.53125 302.714844 " fill-opacity="1" fill-rule="nonzero"/></g><path fill="#ffffff" d="M 909.003906 361.691406 C 910.039062 361.921875 911.066406 362.144531 912.277344 362.414062 C 911.789062 361.855469 911.425781 361.210938 910.871094 360.859375 C 906.070312 357.804688 904.5625 352.820312 903.433594 347.789062 C 900.613281 335.191406 902.566406 323.082031 907.71875 311.382812 C 911.417969 302.992188 916.828125 296.039062 924.386719 290.730469 C 928.546875 287.804688 933.28125 286.972656 938.109375 286.503906 C 938.960938 286.417969 940.210938 287.539062 940.820312 288.425781 C 945.6875 295.457031 947.054688 303.417969 947 311.789062 C 946.898438 326.894531 942.207031 340.40625 932.921875 352.265625 C 928.363281 358.082031 922.292969 361.683594 915.035156 363.171875 C 913.46875 363.496094 911.851562 363.632812 910.261719 363.625 C 909.707031 363.625 909.152344 362.902344 908.605469 362.515625 C 908.742188 362.246094 908.875 361.96875 909.003906 361.691406 Z M 909.003906 361.691406 " fill-opacity="1" fill-rule="nonzero"/><g clip-path="url(#2fe11250a4)"><path fill="#a611f8" d="M 946.042969 302.714844 C 943.785156 294.152344 938.328125 287.75 929.671875 284.773438 C 925.953125 283.496094 922.011719 282.894531 918.265625 281.691406 C 910.738281 279.289062 904.097656 281.398438 898.113281 285.773438 C 890.222656 291.535156 885.191406 299.597656 881.277344 308.378906 C 876.699219 318.644531 875.875 329.511719 876.792969 340.527344 C 877.640625 350.675781 881.960938 358.832031 891.285156 363.847656 C 891.839844 364.140625 892.164062 365.371094 892.15625 366.167969 C 892.128906 370.257812 891.675781 374.363281 891.914062 378.433594 C 892.136719 382.105469 891.015625 385.378906 890.238281 388.78125 C 888.308594 388.699219 886.640625 388.625 885.421875 388.570312 C 885.070312 395.015625 883.203125 400.761719 882.378906 407.105469 C 881.277344 406.226562 880.480469 405.597656 879.675781 404.949219 C 875.960938 401.972656 872.785156 403.15625 872.066406 407.855469 C 871.25 413.097656 870.382812 418.296875 867.984375 423.144531 C 863.09375 433.023438 858.035156 442.761719 850.921875 451.316406 C 849.367188 453.1875 848.359375 455.824219 847.925781 458.246094 C 846.75 464.804688 846.210938 471.480469 845.046875 478.050781 C 844.160156 483.082031 842.484375 488.242188 844.390625 493.070312 C 845.878906 496.851562 844.519531 499.542969 843.179688 502.578125 C 843.113281 502.71875 842.949219 502.855469 842.964844 502.976562 C 843.125 504.09375 843.289062 505.207031 843.503906 506.316406 C 843.660156 507.128906 843.890625 507.925781 844.09375 508.730469 C 843.269531 508.90625 842.382812 509.375 841.652344 509.199219 C 839.820312 508.746094 838.074219 508 836.289062 507.371094 C 832.210938 505.9375 831.507812 506.15625 829.027344 509.589844 C 828.363281 510.515625 827.640625 511.402344 826.957031 512.316406 C 819.730469 522.011719 812.507812 531.714844 805.300781 541.417969 C 805.042969 541.769531 804.914062 542.210938 804.71875 542.621094 C 804.480469 542.5 804.230469 542.386719 803.988281 542.269531 C 803.09375 538.9375 802.101562 535.625 801.324219 532.269531 C 800.160156 527.199219 798.03125 522.261719 799.003906 516.886719 C 799.863281 512.113281 800.808594 507.359375 801.769531 502.605469 C 805.773438 482.765625 809.808594 462.933594 813.820312 443.09375 C 814.476562 439.832031 813.554688 437.5 810.675781 435.695312 C 809.484375 434.945312 808.105469 434.289062 806.726562 434.058594 C 795.5 432.152344 784.261719 430.367188 773.023438 428.527344 C 768.785156 427.832031 764.566406 427.058594 760.367188 426.324219 C 760.367188 425.550781 760.292969 425.234375 760.378906 424.964844 C 761.0625 422.800781 761.785156 420.65625 762.46875 418.492188 C 764.28125 412.730469 763.46875 410.757812 758.15625 407.992188 C 753.257812 405.441406 748.335938 402.914062 743.441406 400.355469 C 741.933594 399.566406 740.832031 398.476562 741.25 396.542969 C 741.433594 396.347656 741.621094 396.144531 741.804688 395.949219 C 741.824219 395.785156 741.832031 395.628906 741.832031 395.46875 C 741.832031 395.628906 741.824219 395.785156 741.804688 395.949219 C 742.96875 395.042969 744.183594 394.195312 745.28125 393.214844 C 754.339844 385.175781 763.734375 377.582031 773.984375 371.089844 C 776.039062 369.792969 778.054688 368.425781 779.988281 366.964844 C 781.539062 365.777344 781.726562 364.28125 780.136719 362.949219 C 778.164062 361.300781 776.222656 359.546875 774.039062 358.214844 C 769.082031 355.1875 763.976562 352.394531 758.757812 349.398438 C 760.425781 345.632812 760.15625 341.554688 759.222656 337.402344 C 758.582031 334.570312 759.054688 331.964844 761.914062 330.296875 C 762.691406 329.84375 763.28125 329.097656 763.957031 328.484375 C 765.179688 327.386719 765.84375 326.285156 764.816406 324.5625 C 764.03125 323.25 764.039062 321.957031 765.769531 320.945312 C 768.257812 319.503906 768.953125 317.257812 767.824219 314.507812 C 767.507812 313.742188 767.324219 312.929688 767.113281 312.125 C 766.132812 308.421875 768.582031 304.363281 772.320312 303.640625 C 774.328125 303.253906 776.378906 303.050781 778.414062 302.808594 C 783.4375 302.21875 785.535156 298.777344 783.492188 294.234375 C 781.28125 289.332031 778.886719 284.511719 776.683594 279.613281 C 774.390625 274.503906 772.253906 269.335938 769.980469 264.21875 C 769.230469 262.527344 769.859375 261.761719 771.429688 261.160156 C 773.902344 260.207031 776.359375 259.1875 778.710938 257.976562 C 779.8125 257.414062 780.652344 256.359375 782.050781 255.148438 C 779.988281 254.695312 778.703125 254.40625 776.878906 254.007812 C 780.53125 250.375 777.710938 246.71875 777.546875 242.835938 C 778.378906 242.835938 779.191406 242.78125 780.003906 242.84375 C 786.0625 243.363281 792.121094 243.863281 798.179688 244.453125 C 803.238281 244.945312 808.308594 245.480469 813.347656 246.128906 C 816.875 246.582031 820.371094 247.277344 823.894531 247.792969 C 825.171875 247.976562 826.605469 248.5625 827.464844 246.839844 C 828.324219 245.121094 826.964844 244.511719 826.003906 243.769531 C 823.238281 241.632812 820.507812 239.421875 817.59375 237.5 C 807.511719 230.820312 796.886719 225.113281 785.933594 219.980469 C 782.679688 218.453125 780.476562 216.023438 779.421875 212.507812 C 776.769531 203.617188 774.371094 194.703125 770.128906 186.285156 C 766.992188 180.078125 765.417969 173.058594 763.265625 166.359375 C 761.042969 159.453125 759.066406 152.46875 756.808594 145.578125 C 755.4375 141.386719 752.320312 138.972656 747.984375 138.289062 C 746.03125 137.984375 744.042969 137.902344 742.0625 137.808594 C 729.003906 137.179688 716.035156 138.398438 703.140625 140.175781 C 685.320312 142.628906 667.773438 146.484375 650.652344 152.050781 C 643.75 154.300781 636.917969 156.863281 630.292969 159.820312 C 624.097656 162.585938 620.765625 167.574219 621 174.675781 C 621.15625 179.550781 621 184.425781 621.027344 189.300781 C 621.109375 200.269531 621.230469 211.238281 621.3125 222.210938 C 621.339844 226.066406 621.21875 226.121094 617.472656 226.925781 C 609.03125 228.730469 600.539062 230.347656 592.1875 232.523438 C 587.765625 233.679688 583.511719 235.628906 579.367188 237.628906 C 577.128906 238.699219 576.953125 240.449219 578.542969 242.34375 C 579.839844 243.890625 581.335938 245.417969 583.058594 246.433594 C 591.046875 251.140625 599.78125 253.492188 609.019531 253.859375 C 613.414062 254.035156 617.816406 253.890625 622.375 253.890625 C 622.542969 256.820312 622.609375 259.625 622.894531 262.40625 C 623.03125 263.722656 623.441406 265.070312 624.011719 266.265625 C 625.167969 268.707031 626.777344 270.953125 627.75 273.453125 C 630.183594 279.730469 632.367188 286.105469 634.640625 292.441406 C 634.828125 292.957031 634.964844 293.503906 635.175781 294.226562 C 634.476562 294.160156 634.023438 294.152344 633.585938 294.078125 C 625.125 292.578125 616.699219 290.960938 608.019531 291.339844 C 601.84375 291.609375 601.472656 292.109375 602.953125 298.203125 C 604.128906 303.058594 605.339844 307.953125 605.882812 312.890625 C 607.171875 324.730469 607.726562 336.660156 611.738281 348.046875 C 612.0625 348.953125 612.304688 350.035156 612.117188 350.941406 C 611.210938 355.289062 610.203125 359.628906 609.101562 363.929688 C 608.707031 365.492188 608.039062 366.890625 610.324219 367.453125 C 610.90625 367.601562 611.453125 367.925781 612.015625 368.175781 C 610.121094 369.792969 608.789062 370.644531 607.429688 371.476562 C 602.25 374.648438 597.0625 377.710938 593.101562 382.585938 C 584.464844 393.214844 575.640625 403.703125 566.722656 414.097656 C 558.257812 423.96875 551.480469 434.714844 548.316406 447.46875 C 544.183594 464.128906 539.925781 480.757812 536.023438 497.472656 C 531.574219 516.554688 527.449219 535.71875 523.195312 554.847656 C 522.066406 559.945312 520.855469 565.019531 519.9375 570.15625 C 519.421875 573.097656 520.523438 574.363281 523.554688 574.28125 C 526.339844 574.207031 529.113281 573.632812 531.871094 573.132812 C 535.402344 572.503906 538.910156 571.726562 542.683594 570.96875 C 539.371094 618.140625 537.160156 664.925781 536.449219 711.792969 C 641.957031 711.792969 747.132812 711.792969 852.6875 711.792969 C 852.234375 684.792969 851.78125 657.960938 851.320312 630.851562 C 852.113281 631.257812 852.761719 631.589844 853.410156 631.921875 C 856.210938 633.375 858.941406 633.511719 861.457031 631.339844 C 862.660156 630.304688 863.992188 629.296875 864.867188 628.011719 C 866.597656 625.449219 868.058594 622.710938 869.625 620.035156 C 871.417969 616.964844 873.046875 613.785156 875.089844 610.890625 C 875.792969 609.890625 877.761719 608.855469 878.753906 609.160156 C 881.527344 610 883.730469 609.308594 885.320312 607.320312 C 889.574219 601.992188 893.617188 596.488281 897.695312 591.023438 C 898.113281 590.464844 898.480469 589.503906 898.289062 588.921875 C 897.4375 586.324219 898.925781 584.824219 900.480469 583.148438 C 903.484375 579.929688 906.574219 576.742188 909.230469 573.242188 C 911.617188 570.109375 911.367188 569.628906 908.785156 566.585938 C 901.109375 557.53125 893.460938 548.445312 885.707031 539.445312 C 884.652344 538.214844 884.617188 537.441406 885.734375 536.429688 C 889.222656 533.269531 892.460938 529.761719 896.234375 526.988281 C 903.347656 521.761719 909.738281 515.925781 915.039062 508.832031 C 918.488281 504.214844 922.261719 499.839844 925.851562 495.316406 C 926.40625 494.625 926.914062 493.808594 927.15625 492.96875 C 927.773438 490.8125 928.523438 488.621094 928.671875 486.410156 C 928.800781 484.476562 928.589844 482.3125 927.820312 480.566406 C 926.664062 477.945312 924.769531 475.679688 923.417969 473.136719 C 922.152344 470.75 920.71875 468.289062 920.21875 465.699219 C 919.726562 463.148438 919.078125 460.902344 917.378906 458.941406 C 916.433594 457.847656 915.445312 456.71875 914.851562 455.433594 C 914.5 454.675781 914.527344 453.351562 914.972656 452.675781 C 916.183594 450.847656 917.601562 449.117188 919.136719 447.542969 C 921.714844 444.898438 918.976562 436.832031 914.574219 437.148438 C 912.050781 437.324219 909.496094 437.175781 906.351562 437.175781 C 909.441406 433.6875 912.113281 430.507812 914.972656 427.511719 C 916.628906 425.78125 917.0625 423.828125 916.636719 421.65625 C 915.464844 415.660156 911.023438 412.5 904.660156 413.023438 C 903.097656 413.15625 901.542969 413.339844 899.75 413.515625 C 900.027344 412.230469 900.109375 411.230469 900.453125 410.332031 C 902.632812 404.5625 901.3125 397.71875 906.019531 392.5 C 904.613281 391.992188 903.246094 391.605469 901.976562 391.003906 C 901.402344 390.734375 900.5625 389.976562 900.628906 389.570312 C 901.550781 384.011719 903.753906 378.847656 907.277344 374.585938 C 908.589844 372.992188 909.054688 371.949219 908.730469 370.171875 C 908.386719 368.296875 909.015625 367.257812 911.144531 367.417969 C 919.679688 368.074219 926.867188 364.667969 932.25 358.566406 C 946.476562 342.460938 951.574219 323.710938 946.042969 302.714844 Z M 946.042969 302.714844 " fill-opacity="1" fill-rule="nonzero"/></g><path fill="#a611f8" d="M 895.511719 361.691406 C 896.546875 361.921875 897.574219 362.144531 898.785156 362.414062 C 898.296875 361.855469 897.9375 361.210938 897.378906 360.859375 C 892.582031 357.804688 891.074219 352.820312 889.945312 347.789062 C 887.125 335.191406 889.074219 323.082031 894.226562 311.382812 C 897.925781 302.992188 903.335938 296.039062 910.894531 290.730469 C 915.054688 287.804688 919.792969 286.972656 924.621094 286.503906 C 925.472656 286.417969 926.71875 287.539062 927.332031 288.425781 C 932.195312 295.457031 933.566406 303.417969 933.507812 311.789062 C 933.40625 326.894531 928.71875 340.40625 919.429688 352.265625 C 914.871094 358.082031 908.804688 361.683594 901.542969 363.171875 C 899.980469 363.496094 898.359375 363.632812 896.769531 363.625 C 896.214844 363.625 895.660156 362.902344 895.113281 362.515625 C 895.253906 362.246094 895.382812 361.96875 895.511719 361.691406 Z M 895.511719 361.691406 " fill-opacity="1" fill-rule="nonzero"/></svg>