<svg xmlns="http://www.w3.org/2000/svg" xmlns:xlink="http://www.w3.org/1999/xlink" width="1920" zoomAndPan="magnify" viewBox="0 0 1440 809.999993" height="1080" preserveAspectRatio="xMidYMid meet" version="1.0"><defs><clipPath id="1894de5cdb"><path d="M 530 170 L 880 170 L 880 630.195312 L 530 630.195312 Z M 530 170 " clip-rule="nonzero"/></clipPath><clipPath id="cefc6c5136"><path d="M 500.429688 133.695312 L 912.179688 133.695312 L 912.179688 385 L 500.429688 385 Z M 500.429688 133.695312 " clip-rule="nonzero"/></clipPath></defs><g clip-path="url(#1894de5cdb)"><path fill="#ffffff" d="M 779.417969 531.574219 L 797.191406 549.347656 L 825.089844 549.347656 C 826.179688 552.125 828.960938 554.011719 832.136719 554.011719 C 836.308594 554.011719 839.683594 550.636719 839.683594 546.46875 C 839.683594 542.296875 836.308594 538.921875 832.136719 538.921875 C 828.960938 538.921875 826.28125 540.90625 825.089844 543.585938 L 799.574219 543.585938 L 783.589844 527.402344 Z M 693.734375 473.890625 L 693.734375 407.667969 L 687.976562 413.425781 L 687.976562 472.699219 L 672.589844 488.085938 L 658.789062 488.085938 L 656.703125 488.980469 L 630.886719 514.796875 C 629.996094 514.398438 629.003906 514.199219 628.007812 514.199219 C 623.839844 514.199219 620.464844 517.574219 620.464844 521.746094 C 620.464844 525.914062 623.839844 529.289062 628.007812 529.289062 C 632.179688 529.289062 635.554688 525.914062 635.554688 521.746094 C 635.554688 520.753906 635.355469 519.757812 634.960938 518.867188 L 659.980469 493.847656 L 674.972656 493.847656 L 675.863281 492.953125 L 693.835938 474.980469 L 693.835938 473.890625 Z M 627.910156 518.867188 C 629.5 518.867188 630.789062 520.15625 630.789062 521.746094 C 630.789062 523.332031 629.5 524.625 627.910156 524.625 C 626.320312 524.625 625.03125 523.332031 625.03125 521.746094 C 625.03125 520.15625 626.320312 518.867188 627.910156 518.867188 Z M 733.449219 457.707031 L 733.449219 380.265625 L 727.691406 386.023438 L 727.691406 463.464844 L 758.46875 463.464844 L 776.738281 481.734375 L 805.230469 481.734375 L 822.707031 499.207031 L 823.601562 500.101562 L 842.664062 500.101562 C 843.753906 502.878906 846.535156 504.765625 849.710938 504.765625 C 853.882812 504.765625 857.257812 501.390625 857.257812 497.222656 C 857.257812 493.050781 853.882812 489.675781 849.710938 489.675781 C 846.535156 489.675781 843.855469 491.660156 842.664062 494.34375 L 825.984375 494.34375 L 807.515625 475.875 L 779.019531 475.875 L 761.746094 458.5 L 760.851562 457.605469 L 733.449219 457.605469 Z M 846.632812 497.023438 C 846.632812 495.433594 847.925781 494.144531 849.511719 494.144531 C 851.101562 494.144531 852.394531 495.433594 852.394531 497.023438 C 852.394531 498.613281 851.101562 499.902344 849.511719 499.902344 C 847.925781 500 846.632812 498.710938 846.632812 497.023438 Z M 848.222656 331.019531 L 879.796875 331.019531 L 879.796875 336.777344 L 809.105469 336.777344 L 791.628906 354.25 L 790.738281 355.144531 L 750.328125 355.144531 L 727.691406 377.78125 L 721.4375 384.039062 L 720.246094 385.230469 L 720.246094 424.84375 L 714.484375 419.085938 L 714.484375 382.945312 L 716.074219 381.355469 L 720.246094 377.1875 L 723.519531 373.910156 L 727.691406 369.738281 L 728.585938 368.847656 L 737.816406 359.613281 L 747.152344 350.28125 L 748.042969 349.386719 L 788.453125 349.386719 L 806.820312 331.019531 Z M 842.859375 310.367188 L 802.253906 310.367188 L 802.253906 316.125 L 845.34375 316.125 L 846.238281 315.234375 L 863.117188 298.355469 L 877.015625 298.355469 L 877.015625 292.597656 L 860.734375 292.597656 L 859.839844 293.488281 Z M 834.917969 291.800781 L 795.203125 291.800781 L 793.121094 292.695312 L 778.128906 307.6875 L 737.917969 307.6875 L 717.367188 328.238281 L 717.265625 328.238281 L 717.265625 328.339844 L 715.179688 330.421875 L 714.289062 332.507812 L 714.289062 374.902344 L 715.875 373.3125 L 720.046875 369.144531 L 720.046875 334.195312 L 784.976562 334.195312 L 784.976562 328.4375 L 725.40625 328.4375 L 740.101562 313.742188 L 779.121094 313.742188 L 781.207031 312.851562 L 796.199219 297.859375 L 837.101562 297.859375 L 867.1875 267.773438 L 863.117188 263.703125 Z M 821.316406 264.398438 L 821.316406 270.15625 L 796.792969 270.15625 L 777.632812 289.320312 L 773.5625 285.25 L 793.617188 265.195312 L 795.699219 264.300781 L 821.316406 264.300781 Z M 831.046875 222.003906 L 804.4375 248.511719 L 808.507812 252.585938 L 835.117188 226.074219 Z M 810.496094 204.429688 L 814.566406 208.5 L 774.355469 248.710938 L 774.355469 270.753906 L 773.460938 271.648438 L 749.730469 295.375 L 745.660156 291.304688 L 768.597656 268.371094 L 768.597656 246.328125 Z M 749.535156 205.226562 L 749.535156 238.785156 L 755.292969 238.785156 L 755.292969 206.417969 L 775.148438 186.558594 L 771.078125 182.488281 L 749.433594 204.132812 L 749.433594 205.226562 Z M 704.558594 170.179688 L 704.558594 244.441406 L 710.316406 244.441406 L 710.316406 170.179688 Z M 679.339844 262.414062 L 678.445312 261.519531 L 678.445312 239.675781 L 655.410156 216.542969 L 627.214844 188.347656 L 631.285156 184.277344 L 659.484375 212.574219 L 678.445312 231.535156 L 678.445312 191.820312 L 661.667969 175.042969 L 665.738281 170.972656 L 683.410156 188.644531 L 684.304688 190.730469 L 684.304688 259.335938 L 706.144531 281.179688 L 707.039062 282.070312 L 707.039062 301.53125 L 730.96875 277.605469 L 730.96875 172.757812 L 736.726562 172.757812 L 736.726562 279.789062 L 735.832031 280.683594 L 706.941406 309.472656 L 706.941406 419.78125 L 720.144531 432.984375 L 720.144531 474.683594 L 738.511719 474.683594 L 739.40625 475.578125 L 772.371094 510.226562 L 792.324219 510.226562 C 793.417969 507.449219 796.199219 505.5625 799.375 505.5625 C 803.542969 505.5625 806.921875 508.9375 806.921875 513.105469 C 806.921875 517.277344 803.542969 520.652344 799.375 520.652344 C 796.199219 520.652344 793.515625 518.667969 792.324219 515.988281 L 769.886719 515.988281 L 768.992188 515.09375 L 736.03125 480.441406 L 714.289062 480.441406 L 714.289062 435.367188 L 706.839844 427.921875 L 701.082031 422.164062 L 701.082031 284.257812 Z M 799.472656 510.328125 C 797.886719 510.328125 796.59375 511.617188 796.59375 513.207031 C 796.59375 514.796875 797.886719 516.085938 799.472656 516.085938 C 801.0625 516.085938 802.351562 514.796875 802.351562 513.207031 C 802.351562 511.71875 801.0625 510.328125 799.472656 510.328125 Z M 659.285156 273.632812 L 580.453125 273.632812 L 554.042969 247.222656 L 549.972656 251.292969 L 578.070312 279.390625 L 659.285156 279.390625 Z M 614.207031 256.855469 L 664.746094 256.855469 L 664.746094 251.09375 L 615.398438 251.09375 L 608.054688 243.746094 L 608.054688 197.976562 L 602.292969 197.976562 L 602.292969 202.347656 C 602.292969 202.542969 602.292969 202.644531 602.292969 202.84375 L 602.292969 237.890625 L 580.847656 216.644531 L 576.777344 220.714844 L 603.089844 247.023438 L 612.125 256.058594 L 613.015625 256.953125 L 614.207031 256.953125 Z M 672.886719 350.179688 L 646.378906 323.671875 L 565.660156 323.671875 L 564.765625 322.777344 L 534.382812 292.496094 L 538.453125 288.425781 L 567.941406 317.914062 L 588.097656 317.914062 L 611.230469 294.78125 L 613.316406 293.886719 L 656.40625 293.886719 L 657.296875 294.78125 L 692.84375 330.324219 L 693.734375 332.410156 L 693.734375 399.527344 L 680.53125 412.730469 L 680.53125 463.464844 L 644.589844 463.464844 L 620.5625 487.492188 L 563.671875 487.492188 C 562.582031 490.273438 559.800781 492.15625 556.625 492.15625 C 552.453125 492.15625 549.078125 488.78125 549.078125 484.613281 C 549.078125 480.441406 552.453125 477.066406 556.625 477.066406 C 559.800781 477.066406 562.480469 479.050781 563.671875 481.734375 L 618.082031 481.734375 L 642.109375 457.707031 L 674.671875 457.707031 L 674.671875 410.347656 L 687.976562 397.042969 L 687.976562 333.5 L 654.121094 299.644531 L 614.605469 299.644531 L 596.4375 317.8125 L 648.761719 317.8125 L 649.652344 318.707031 L 677.054688 346.109375 Z M 556.625 481.734375 C 555.035156 481.734375 553.746094 483.023438 553.746094 484.613281 C 553.746094 486.199219 555.035156 487.492188 556.625 487.492188 C 558.210938 487.492188 559.503906 486.199219 559.503906 484.613281 C 559.503906 483.023438 558.210938 481.734375 556.625 481.734375 Z M 674.671875 373.710938 L 674.671875 402.105469 L 680.429688 396.347656 L 680.429688 367.953125 L 649.257812 367.953125 L 638.929688 350.179688 L 638.136719 348.691406 L 582.636719 348.691406 L 568.140625 340.351562 L 566.652344 339.953125 L 530.214844 339.953125 L 530.214844 345.714844 L 565.957031 345.714844 L 580.453125 354.054688 L 581.941406 354.449219 L 634.859375 354.449219 L 645.1875 372.222656 L 645.980469 373.710938 Z M 776.242188 564.535156 L 800.464844 578.535156 C 800.464844 578.832031 800.367188 579.230469 800.367188 579.527344 C 800.367188 583.699219 803.742188 587.074219 807.914062 587.074219 C 812.082031 587.074219 815.457031 583.699219 815.457031 579.527344 C 815.457031 575.359375 812.082031 571.984375 807.914062 571.984375 C 806.125 571.984375 804.539062 572.578125 803.246094 573.570312 L 779.019531 559.574219 Z M 805.035156 579.527344 C 805.035156 577.941406 806.324219 576.648438 807.914062 576.648438 C 809.5 576.648438 810.792969 577.941406 810.792969 579.527344 C 810.792969 581.117188 809.5 582.40625 807.914062 582.40625 C 806.324219 582.40625 805.035156 581.117188 805.035156 579.527344 Z M 687.382812 615.964844 L 689.765625 597.894531 L 684.003906 597.101562 L 681.621094 615.171875 C 678.347656 616.066406 675.964844 618.945312 675.964844 622.519531 C 675.964844 626.6875 679.339844 630.066406 683.507812 630.066406 C 687.679688 630.066406 691.054688 626.6875 691.054688 622.519531 C 691.253906 619.738281 689.664062 617.257812 687.382812 615.964844 Z M 683.609375 619.640625 C 685.199219 619.640625 686.488281 620.929688 686.488281 622.519531 C 686.488281 624.105469 685.195312 625.398438 683.609375 625.398438 C 682.019531 625.398438 680.730469 624.105469 680.730469 622.519531 C 680.730469 620.929688 682.019531 619.640625 683.609375 619.640625 Z M 718.457031 580.421875 L 712.699219 580.421875 L 712.699219 606.535156 L 714.1875 607.328125 L 731.066406 617.058594 C 731.066406 617.355469 730.96875 617.753906 730.96875 618.050781 C 730.96875 622.222656 734.34375 625.597656 738.511719 625.597656 C 742.683594 625.597656 746.058594 622.222656 746.058594 618.050781 C 746.058594 613.882812 742.683594 610.503906 738.511719 610.503906 C 736.726562 610.503906 735.136719 611.101562 733.847656 612.09375 L 718.359375 603.160156 L 718.359375 580.421875 Z M 738.613281 615.171875 C 740.199219 615.171875 741.492188 616.460938 741.492188 618.050781 C 741.492188 619.640625 740.199219 620.929688 738.613281 620.929688 C 737.023438 620.929688 735.734375 619.640625 735.734375 618.050781 C 735.734375 616.460938 737.023438 615.171875 738.613281 615.171875 Z M 715.675781 494.441406 L 721.4375 494.441406 L 721.4375 530.878906 L 743.578125 543.6875 L 745.066406 544.480469 L 745.066406 575.359375 L 776.242188 593.328125 C 777.53125 592.335938 779.121094 591.742188 780.90625 591.742188 C 785.078125 591.742188 788.453125 595.117188 788.453125 599.285156 C 788.453125 603.457031 785.078125 606.832031 780.90625 606.832031 C 776.738281 606.832031 773.363281 603.457031 773.363281 599.285156 C 773.363281 598.988281 773.363281 598.589844 773.460938 598.292969 L 740.796875 579.429688 L 739.308594 578.636719 L 739.308594 547.757812 L 717.167969 534.949219 L 715.675781 534.15625 Z M 781.007812 596.40625 C 779.417969 596.40625 778.128906 597.699219 778.128906 599.285156 C 778.128906 600.875 779.417969 602.164062 781.007812 602.164062 C 782.59375 602.164062 783.886719 600.875 783.886719 599.285156 C 783.886719 597.699219 782.59375 596.40625 781.007812 596.40625 Z M 671.398438 576.648438 L 672.886719 576.253906 L 692.644531 576.253906 L 692.644531 547.660156 C 689.863281 546.566406 687.976562 543.785156 687.976562 540.609375 C 687.976562 536.4375 691.351562 533.0625 695.523438 533.0625 C 699.691406 533.0625 703.070312 536.4375 703.070312 540.609375 C 703.070312 543.785156 701.082031 546.46875 698.402344 547.660156 L 698.402344 582.011719 L 673.582031 582.011719 L 636.25 603.554688 C 636.25 603.851562 636.347656 604.25 636.347656 604.546875 C 636.347656 608.71875 632.972656 612.09375 628.804688 612.09375 C 624.632812 612.09375 621.257812 608.71875 621.257812 604.546875 C 621.257812 600.378906 624.632812 597.003906 628.804688 597.003906 C 630.589844 597.003906 632.179688 597.597656 633.46875 598.589844 Z M 695.523438 543.488281 C 697.113281 543.488281 698.402344 542.199219 698.402344 540.609375 C 698.402344 539.019531 697.113281 537.730469 695.523438 537.730469 C 693.933594 537.730469 692.644531 539.019531 692.644531 540.609375 C 692.644531 542.199219 693.933594 543.488281 695.523438 543.488281 Z M 628.703125 601.667969 C 627.117188 601.667969 625.824219 602.960938 625.824219 604.546875 C 625.824219 606.136719 627.117188 607.425781 628.703125 607.425781 C 630.292969 607.425781 631.582031 606.136719 631.582031 604.546875 C 631.582031 602.960938 630.292969 601.667969 628.703125 601.667969 Z M 627.910156 562.152344 L 606.863281 562.152344 L 604.777344 563.046875 L 598.023438 569.796875 C 597.132812 569.402344 596.140625 569.203125 595.144531 569.203125 C 590.976562 569.203125 587.601562 572.578125 587.601562 576.75 C 587.601562 580.917969 590.976562 584.292969 595.144531 584.292969 C 599.316406 584.292969 602.691406 580.917969 602.691406 576.75 C 602.691406 575.753906 602.492188 574.761719 602.097656 573.871094 L 607.953125 568.011719 L 630.195312 568.011719 L 631.085938 567.117188 L 658.488281 539.714844 L 654.417969 535.644531 Z M 595.246094 573.769531 C 596.832031 573.769531 598.125 575.0625 598.125 576.648438 C 598.125 578.238281 596.832031 579.527344 595.246094 579.527344 C 593.65625 579.527344 592.367188 578.238281 592.367188 576.648438 C 592.367188 575.0625 593.65625 573.769531 595.246094 573.769531 Z M 601.402344 516.285156 L 605.472656 520.355469 L 581.246094 544.582031 C 581.644531 545.472656 581.84375 546.464844 581.84375 547.460938 C 581.84375 551.628906 578.464844 555.003906 574.296875 555.003906 C 570.125 555.003906 566.75 551.628906 566.75 547.460938 C 566.75 543.289062 570.125 539.914062 574.296875 539.914062 C 575.289062 539.914062 576.28125 540.113281 577.175781 540.507812 Z M 574.296875 544.582031 C 572.707031 544.582031 571.417969 545.871094 571.417969 547.460938 C 571.417969 549.046875 572.707031 550.339844 574.296875 550.339844 C 575.886719 550.339844 577.175781 549.046875 577.175781 547.460938 C 577.175781 545.871094 575.886719 544.582031 574.296875 544.582031 Z M 706.941406 504.269531 L 706.941406 505.957031 L 705.453125 506.753906 L 682.617188 519.957031 L 681.125 520.355469 L 671.992188 520.355469 C 670.898438 523.136719 668.121094 525.019531 664.941406 525.019531 C 660.773438 525.019531 657.398438 521.644531 657.398438 517.476562 C 657.398438 513.304688 660.773438 509.929688 664.941406 509.929688 C 668.121094 509.929688 670.800781 511.914062 671.992188 514.597656 L 680.332031 514.597656 L 700.984375 502.683594 L 700.984375 430.503906 L 706.742188 436.261719 L 706.742188 504.269531 Z M 665.140625 514.496094 C 666.730469 514.496094 668.019531 515.789062 668.019531 517.375 C 668.019531 518.964844 666.730469 520.253906 665.140625 520.253906 C 663.554688 520.253906 662.261719 518.964844 662.261719 517.375 C 662.261719 515.789062 663.554688 514.496094 665.140625 514.496094 Z M 829.257812 546.367188 C 829.257812 544.777344 830.550781 543.488281 832.136719 543.488281 C 833.726562 543.488281 835.019531 544.777344 835.019531 546.367188 C 835.019531 547.957031 833.726562 549.246094 832.136719 549.246094 C 830.550781 549.246094 829.257812 547.957031 829.257812 546.367188 Z M 829.257812 546.367188 " fill-opacity="1" fill-rule="evenodd"/></g><g clip-path="url(#cefc6c5136)"><path fill="#ffffff" d="M 706.445312 163.425781 C 698.5 154.589844 698.898438 142.179688 707.734375 133.742188 C 716.472656 142.179688 716.96875 154.589844 709.027344 163.425781 Z M 842.5625 224.488281 C 849.015625 214.558594 861.128906 211.679688 871.554688 218.035156 C 865.695312 228.757812 853.78125 232.332031 843.160156 226.96875 Z M 790.339844 211.878906 C 784.976562 201.253906 788.550781 189.4375 799.273438 183.480469 C 805.53125 193.90625 802.75 206.019531 792.820312 212.472656 Z M 766.3125 167.894531 C 758.371094 159.058594 758.765625 146.648438 767.601562 138.207031 C 776.339844 146.648438 776.835938 159.058594 768.894531 167.894531 Z M 576.480469 211.679688 C 564.664062 211.082031 556.128906 201.949219 556.324219 189.738281 C 568.539062 189.539062 577.574219 197.976562 578.269531 209.890625 Z M 654.617188 364.179688 C 644.6875 357.726562 641.808594 345.613281 648.164062 335.1875 C 658.789062 341.046875 662.460938 352.960938 657.101562 363.585938 Z M 607.65625 332.109375 C 601.203125 342.039062 589.089844 344.917969 578.664062 338.566406 C 584.523438 327.941406 596.4375 324.269531 607.058594 329.628906 Z M 641.015625 332.804688 C 634.5625 342.734375 622.449219 345.613281 612.023438 339.261719 C 617.882812 328.535156 629.796875 324.960938 640.417969 330.324219 Z M 522.570312 338.464844 C 521.972656 326.652344 512.839844 318.113281 500.628906 318.3125 C 500.429688 330.523438 508.867188 339.558594 520.78125 340.253906 Z M 887.339844 328.339844 C 898.957031 330.820312 909.480469 324.269531 912.460938 312.355469 C 900.746094 308.976562 889.824219 314.835938 886.148438 326.152344 Z M 796.097656 279.886719 C 804.933594 271.945312 817.34375 272.34375 825.785156 281.179688 C 817.34375 289.914062 804.933594 290.410156 796.097656 282.46875 Z M 632.078125 367.855469 C 625.625 377.78125 613.515625 380.660156 603.089844 374.308594 C 608.945312 363.585938 620.859375 360.011719 631.484375 365.371094 L 633.46875 366.164062 Z M 562.78125 353.753906 C 562.183594 365.570312 553.050781 374.109375 540.835938 373.910156 C 540.640625 361.699219 549.078125 352.664062 560.992188 351.96875 Z M 522.570312 348.691406 C 521.875 360.507812 512.839844 369.046875 500.628906 368.847656 C 500.429688 356.632812 508.867188 347.601562 520.78125 346.90625 Z M 553.644531 317.714844 C 549.972656 329.035156 538.949219 334.890625 527.335938 331.515625 C 530.214844 319.699219 540.835938 313.148438 552.453125 315.53125 Z M 528.03125 293.589844 C 516.414062 296.070312 505.890625 289.519531 502.910156 277.605469 C 514.625 274.226562 525.546875 280.085938 529.222656 291.40625 Z M 594.949219 299.546875 C 586.109375 307.488281 573.699219 307.089844 565.261719 298.253906 C 573.699219 289.519531 586.109375 289.023438 594.949219 296.964844 Z M 558.511719 265.195312 C 554.835938 276.511719 543.816406 282.371094 532.199219 278.992188 C 535.078125 267.179688 545.703125 260.625 557.320312 263.007812 Z M 540.640625 250.699219 C 528.726562 250.003906 520.285156 240.96875 520.484375 228.757812 C 532.695312 228.558594 541.730469 236.996094 542.425781 248.910156 Z M 612.917969 234.117188 C 610.4375 222.5 616.988281 211.976562 628.902344 209 C 632.277344 220.714844 626.421875 231.636719 615.101562 235.308594 Z M 599.117188 253.378906 C 590.28125 261.320312 577.871094 260.925781 569.429688 252.085938 C 577.871094 243.351562 590.28125 242.855469 599.117188 250.796875 Z M 572.410156 221.804688 L 572.410156 219.324219 C 563.574219 211.382812 551.164062 211.777344 542.722656 220.613281 C 551.164062 229.351562 563.574219 229.75 572.410156 221.804688 Z M 597.527344 202.542969 L 599.316406 200.757812 C 598.621094 188.941406 589.585938 180.40625 577.375 180.703125 C 577.175781 192.914062 585.613281 201.949219 597.527344 202.542969 Z M 626.621094 181.296875 C 614.804688 180.703125 606.265625 171.566406 606.464844 159.355469 C 618.675781 159.15625 627.710938 167.597656 628.40625 179.511719 Z M 661.367188 167 C 649.554688 166.40625 641.015625 157.269531 641.214844 145.058594 C 653.425781 144.859375 662.460938 153.300781 663.15625 165.214844 Z M 681.921875 176.632812 C 673.976562 167.796875 674.375 155.382812 683.210938 146.945312 C 691.949219 155.382812 692.445312 167.796875 684.503906 176.632812 Z M 668.121094 204.628906 C 656.304688 204.035156 647.765625 194.898438 647.964844 182.6875 C 660.175781 182.488281 669.210938 190.929688 669.90625 202.84375 Z M 689.167969 298.75 C 677.355469 298.15625 668.816406 289.023438 669.015625 276.808594 C 681.226562 276.609375 690.261719 285.050781 690.957031 296.964844 Z M 657.597656 247.421875 C 645.78125 246.824219 637.242188 237.691406 637.441406 225.480469 C 649.652344 225.28125 658.6875 233.71875 659.382812 245.632812 Z M 716.074219 280.683594 C 708.132812 271.84375 708.527344 259.433594 717.367188 250.996094 C 726.101562 259.433594 726.597656 271.84375 718.65625 280.683594 Z M 754.398438 362.789062 C 766.214844 363.386719 774.753906 372.519531 774.554688 384.730469 C 762.339844 384.929688 753.304688 376.492188 752.613281 364.578125 Z M 791.234375 359.414062 C 803.046875 360.011719 811.585938 369.144531 811.386719 381.355469 C 799.175781 381.554688 790.140625 373.117188 789.445312 361.203125 Z M 855.867188 342.835938 C 867.683594 343.429688 876.222656 352.5625 876.023438 364.777344 C 863.808594 364.972656 854.777344 356.535156 854.082031 344.621094 Z M 812.777344 343.230469 L 810.992188 345.019531 C 811.585938 356.832031 820.722656 365.371094 832.933594 365.171875 C 833.132812 352.960938 824.691406 343.828125 812.777344 343.230469 Z M 887.339844 336.777344 C 898.957031 334.296875 909.480469 340.847656 912.460938 352.761719 C 900.746094 356.136719 889.824219 350.28125 886.148438 338.960938 Z M 855.96875 312.15625 C 864.804688 304.210938 877.214844 304.609375 885.652344 313.445312 C 877.214844 322.183594 864.804688 322.679688 855.96875 314.738281 Z M 878.503906 288.328125 C 879.101562 276.511719 888.234375 267.972656 900.445312 268.171875 C 900.644531 280.382812 892.207031 289.417969 880.292969 290.113281 Z M 867.085938 261.421875 C 867.683594 249.605469 876.816406 241.066406 889.027344 241.265625 C 889.226562 253.476562 880.789062 262.511719 868.875 263.207031 Z M 810.792969 200.558594 L 813.175781 201.253906 C 823.105469 194.800781 825.984375 182.6875 819.628906 172.261719 C 809.003906 178.121094 805.429688 190.035156 810.792969 200.558594 Z M 836.308594 219.421875 L 838.691406 220.117188 C 848.621094 213.664062 851.5 201.550781 845.144531 191.128906 C 834.519531 196.886719 830.945312 208.800781 836.308594 219.421875 Z M 847.328125 270.457031 C 839.386719 261.621094 839.785156 249.207031 848.621094 240.769531 C 857.355469 249.207031 857.851562 261.621094 849.910156 270.457031 Z M 779.21875 260.429688 C 779.816406 248.613281 788.949219 240.074219 801.160156 240.273438 C 801.359375 252.484375 792.921875 261.519531 781.007812 262.214844 Z M 750.726562 278.992188 C 742.78125 270.15625 743.179688 257.746094 752.015625 249.308594 C 760.753906 257.746094 761.25 270.15625 753.304688 278.992188 Z M 760.257812 231.636719 C 760.851562 219.820312 769.988281 211.28125 782.199219 211.480469 C 782.398438 223.691406 773.957031 232.726562 762.042969 233.421875 Z M 775.148438 178.914062 L 776.9375 180.703125 C 788.75 180.105469 797.289062 170.972656 797.089844 158.761719 C 784.878906 158.5625 775.84375 167 775.148438 178.914062 Z M 752.710938 189.835938 L 755.191406 189.835938 C 763.136719 181 762.738281 168.589844 753.902344 160.148438 C 745.164062 168.488281 744.769531 181 752.710938 189.835938 Z M 732.855469 163.921875 C 724.910156 155.085938 725.308594 142.675781 734.144531 134.238281 C 742.882812 142.675781 743.378906 155.085938 735.433594 163.921875 Z M 732.855469 163.921875 " fill-opacity="1" fill-rule="evenodd"/></g></svg>