<svg xmlns="http://www.w3.org/2000/svg" xmlns:xlink="http://www.w3.org/1999/xlink" version="1.1" x="0px" y="0px"
    viewBox="0 0 100 125" style="enable-background:new 0 0 100 100;" xml:space="preserve">
    <path fill="#dd4047"
        d="M89.4,83.7V45.3c0-3.7-3-6.7-6.7-6.7H66.2C62.4,35,57.4,33,52.1,33h-0.5v-4.5c1.7-0.9,2.4-3,1.6-4.7c-0.9-1.7-3-2.4-4.7-1.6  s-2.4,3-1.6,4.7c0.3,0.7,0.9,1.2,1.6,1.6V33h-0.5c-5.2,0-10.3,2-14.1,5.6H17.3c-3.7,0-6.7,3-6.7,6.7v38.4H4.9V88c0,3.9,3.1,7,7,7  l0,0H88c3.9,0,7-3.1,7-7v-4.3H89.4z M38.2,45.1c1-1,2.3-1.6,3.7-1.5h16.2c2.9,0,5.3,2.4,5.3,5.3c0,2.9-2.4,5.3-5.3,5.3H41.9  c-2.9,0-5.3-2.4-5.3-5.3C36.6,47.5,37.2,46.1,38.2,45.1L38.2,45.1z M53.8,56.9L53.8,56.9c0,2.1-1.7,3.8-3.8,3.8s-3.8-1.7-3.8-3.8  H53.8z M84.5,83.7H58.5v1.4H41.5v-1.4H15.5V45.3c0-1,0.8-1.8,1.8-1.8H30c-1.7,3-2.5,6.4-2.5,9.9v2.1c0,4.7,3.8,8.4,8.5,8.4  c0,0,0,0,0,0h28.2c4.7,0,8.4-3.8,8.4-8.5v-2.1c0-3.4-0.9-6.8-2.5-9.9h12.8c1,0,1.8,0.8,1.8,1.8l0,0V83.7z M50,13.6  c3.1,0,6.1,1.2,8.3,3.4l-3,3c-2.9-2.9-7.7-2.9-10.6,0c0,0,0,0,0,0l-3-3C43.9,14.8,46.9,13.6,50,13.6z M38.6,13.9l-3-3  c7.9-7.9,20.8-7.9,28.7,0c0,0,0,0,0,0l-3,3C55.1,7.7,44.9,7.7,38.6,13.9C38.6,13.9,38.6,13.9,38.6,13.9L38.6,13.9z M39.2,48.9  c0-1.5,1.2-2.7,2.7-2.7s2.7,1.2,2.7,2.7s-1.2,2.7-2.7,2.7C40.4,51.6,39.2,50.4,39.2,48.9C39.2,48.9,39.2,48.9,39.2,48.9L39.2,48.9z   M55.4,48.9c0-1.5,1.2-2.7,2.7-2.7s2.7,1.2,2.7,2.7s-1.2,2.7-2.7,2.7C56.6,51.6,55.4,50.4,55.4,48.9C55.4,48.9,55.4,48.9,55.4,48.9  L55.4,48.9z M68.3,80.9H31.7c0-7.8,6.3-14.1,14.1-14h8.5C62,66.8,68.3,73.1,68.3,80.9C68.3,80.9,68.3,80.9,68.3,80.9L68.3,80.9z" />
</svg>