<svg xmlns="http://www.w3.org/2000/svg" xmlns:xlink="http://www.w3.org/1999/xlink" width="500" zoomAndPan="magnify" viewBox="0 0 375 262.499992" height="350" preserveAspectRatio="xMidYMid meet" version="1.0"><defs><clipPath id="175e7af9bb"><path d="M 10 18.246094 L 362 18.246094 L 362 232 L 10 232 Z M 10 18.246094 " clip-rule="nonzero"/></clipPath><clipPath id="8e5ae888b0"><path d="M 330 21 L 374.640625 21 L 374.640625 67 L 330 67 Z M 330 21 " clip-rule="nonzero"/></clipPath><clipPath id="2366bd40f6"><path d="M 0.355469 199 L 45 199 L 45 243.566406 L 0.355469 243.566406 Z M 0.355469 199 " clip-rule="nonzero"/></clipPath></defs><path fill="#51abb2" d="M 316.484375 46.808594 L 51.667969 33.652344 C 37.75 32.957031 26.1875 43.957031 26.59375 57.507812 L 30.640625 194.488281 C 31.035156 207.832031 42.894531 218.113281 56.578125 216.953125 L 283.015625 197.730469 C 292.605469 196.917969 300.753906 190.574219 303.6875 181.65625 L 338.003906 77.066406 C 342.769531 62.546875 332.117188 47.585938 316.484375 46.808594 Z M 316.484375 46.808594 " fill-opacity="1" fill-rule="nonzero"/><g clip-path="url(#175e7af9bb)"><path fill="#51abb2" d="M 360.734375 55.722656 L 357.226562 55.722656 C 358.402344 60.210938 358.292969 64.988281 356.832031 69.574219 L 318.625 189.269531 C 315.5625 198.855469 307.125 205.617188 297.09375 206.480469 L 45.003906 228.492188 C 42.320312 228.71875 39.6875 228.539062 37.152344 227.941406 L 34.375 230.71875 C 37.066406 231.554688 39.890625 232 42.777344 232 C 43.625 232 44.464844 231.964844 45.3125 231.878906 L 297.402344 209.878906 C 308.800781 208.886719 318.398438 201.203125 321.882812 190.296875 L 360.089844 70.601562 C 361.644531 65.695312 361.847656 60.582031 360.734375 55.722656 Z M 38.289062 22.066406 C 38.730469 22.066406 39.160156 22.078125 39.605469 22.101562 L 334.402344 37.171875 C 337.070312 37.316406 339.632812 37.855469 342.050781 38.773438 L 342.050781 35.148438 C 339.667969 34.371094 337.167969 33.890625 334.582031 33.761719 L 39.773438 18.691406 C 31.921875 18.296875 24.1875 21.214844 18.550781 26.722656 C 12.9375 32.226562 9.835938 39.886719 10.050781 47.753906 L 14.5625 204.515625 C 14.625 206.648438 14.910156 208.730469 15.4375 210.742188 L 18.3125 207.867188 C 18.105469 206.742188 18.011719 205.59375 17.976562 204.421875 L 13.464844 47.65625 C 13.257812 40.628906 15.917969 34.070312 20.933594 29.164062 C 25.648438 24.554688 31.765625 22.066406 38.289062 22.066406 Z M 38.289062 22.066406 " fill-opacity="1" fill-rule="nonzero"/></g><g clip-path="url(#8e5ae888b0)"><path fill="#ffd230" d="M 357.992188 46.792969 C 363.929688 46.78125 369.675781 46.257812 374.558594 45.179688 C 369.820312 43.585938 364.15625 42.460938 358.257812 41.816406 C 360.578125 39.183594 362.53125 36.394531 363.859375 33.664062 C 361.011719 34.695312 358.03125 36.34375 355.167969 38.378906 C 355.15625 32.445312 354.628906 26.699219 353.554688 21.816406 C 351.960938 26.554688 350.835938 32.214844 350.191406 38.117188 C 347.554688 35.792969 344.765625 33.84375 342.039062 32.515625 C 343.066406 35.363281 344.707031 38.34375 346.742188 41.207031 C 340.804688 41.21875 335.058594 41.742188 330.1875 42.820312 C 334.929688 44.414062 340.578125 45.550781 346.480469 46.183594 C 344.15625 48.816406 342.207031 51.59375 340.890625 54.324219 C 343.738281 53.292969 346.71875 51.65625 349.578125 49.621094 C 349.589844 55.554688 350.117188 61.300781 351.195312 66.171875 C 352.785156 61.433594 353.925781 55.773438 354.558594 49.871094 C 357.191406 52.191406 359.980469 54.144531 362.699219 55.472656 C 361.667969 52.648438 360.027344 49.667969 357.992188 46.792969 Z M 357.992188 46.792969 " fill-opacity="1" fill-rule="nonzero"/></g><g clip-path="url(#2366bd40f6)"><path fill="#ffd230" d="M 28.378906 223.742188 C 34.289062 223.152344 39.953125 222.066406 44.714844 220.519531 C 39.84375 219.394531 34.097656 218.820312 28.160156 218.75 C 30.21875 215.898438 31.894531 212.945312 32.949219 210.09375 C 30.207031 211.398438 27.40625 213.328125 24.75 215.625 C 24.164062 209.710938 23.074219 204.050781 21.53125 199.285156 C 20.40625 204.15625 19.832031 209.902344 19.757812 215.828125 C 16.910156 213.769531 13.953125 212.09375 11.105469 211.039062 C 12.398438 213.78125 14.324219 216.582031 16.625 219.226562 C 10.722656 219.8125 5.046875 220.890625 0.296875 222.449219 C 5.167969 223.574219 10.902344 224.160156 16.839844 224.21875 C 14.78125 227.066406 13.117188 230.023438 12.0625 232.859375 C 14.804688 231.570312 17.605469 229.640625 20.25 227.34375 C 20.835938 233.242188 21.914062 238.917969 23.46875 243.667969 C 24.59375 238.796875 25.179688 233.050781 25.242188 227.117188 C 28.089844 229.175781 31.046875 230.839844 33.882812 231.902344 C 32.601562 229.199219 30.6875 226.398438 28.378906 223.742188 Z M 28.378906 223.742188 " fill-opacity="1" fill-rule="nonzero"/></g></svg>