<svg height="1080" preserveAspectRatio="xMidYMid meet" viewBox="0 0 810 809.999993" width="1080" xmlns="http://www.w3.org/2000/svg" zoomAndPan="magnify"><g fill="#dd4047"><path d="m658.652344 341.414062c1.78125-1.09375 3.320312-2.632812 3.726562-4.738281.160156-.726562.039063-1.296875-.121094-1.984375-.691406-.808594-1.21875-1.132812-2.308593-1.296875l-1.664063.042969c-2.550781.808594-5.382812 1.820312-8.058594 2.023438-2.308593.164062-6.4375-1.011719-8.421874-.28125-.648438.242187-1.582032 1.292968-1.90625 1.859374-.566407.972657-.445313 1.539063-.121094 2.554688 1.621094 1.578125 3.039062 2.429688 5.183594 3.15625 4.738281 1.214844 9.316406 1.257812 13.691406-1.335938zm0 0"/><path d="m789.101562 385.964844c-3.078124 4.617187-6.761718 9.070312-10.773437 12.917968-4.414063 4.214844-18.710937 14.015626-23.003906 18.308594 1.621093-.367187 3.121093-.8125 4.660156-1.417968 12.308594-5.75 32.925781-23.246094 37.621094-36.125 1.660156-4.539063 3.445312-12.597657 1.5-17.132813-.6875-1.621094-1.824219-2.671875-3.28125-3.5625l-.929688.078125c1.863281 9.519531-.40625 18.957031-5.792969 26.933594zm0 0"/><path d="m588.34375 346.03125c4.171875-.445312 8.585938-.605469 12.714844-1.417969 2.109375-.445312 4.660156-1.742187 6.359375-3.078125-.566407-.402344-.6875-.242187-1.335938-.199218l-75.652343 8.664062c-10.9375 1.335938-23.003907 1.703125-33.574219 4.578125l-.246094.527344c.488281.160156.890625.363281 1.378906.402343l68.363281-7.046874zm0 0"/><path d="m478.023438 376.527344c-7.332032-3.726563-15.3125-5.304688-23.453126-5.710938-2.628906-.121094-5.789062-.324218-8.339843.082032-9.761719.933593-20.898438 4.132812-27.378907 11.988281l-.488281.566406c4.984375-1.253906 9.277344-3.96875 14.136719-5.546875 15.105469-4.902344 32.683594-3.28125 46.332031 4.859375 5.792969 3.441406 10.773438 7.816406 15.269531 12.839844 2.589844 3.320312 5.183594 6.679687 7.492188 10.246093 1.78125 2.753907 3.117188 5.953126 5.304688 8.382813l.730468-.203125c.96875-1.945312.808594-3.359375.160156-5.425781-4.253906-13.691407-17.335937-25.757813-29.765624-32.078125zm0 0"/><path d="m237.085938 388.113281c-3.644532-1.90625-9.476563-2.148437-13.527344-2.714843l-40.457032-3.6875-73.425781-7.449219c-11.058593-.933594-22.761719-2.796875-33.859375-1.703125-1.378906.648437-2.472656 1.257812-3.644531 2.226562.28125.851563.039063.691406.605469.972656 2.511718 1.214844 5.589844 1.175782 8.34375 1.296876l12.191406.648437 21.222656 1.621094 40.863282 3.847656 80.917968 9.757813 3.320313.121093c.527343-.847656.527343-.96875.285156-1.984375-.363281-1.414062-1.621094-2.347656-2.835937-2.953125zm0 0"/><path d="m518.804688 443.070312c3.5625 2.390626 20.332031.203126 25.152343-.285156 25.230469-2.632812 50.824219-5.667968 75.449219-11.90625 11.582031-2.957031 24.339844-7.328125 34.0625-14.417968 8.382812-6.113282 14.863281-14.175782 20.128906-23.042969 7.9375-13.285157 11.742188-27.824219 13.566406-43.050781.808594-6.644532 1.296876-14.054688-.40625-20.617188-1.375-5.34375-4.25-12.230469-9.191406-15.1875-1.824218-1.09375-4.011718-1.699219-6.15625-1.78125-4.132812.972656-8.0625 2.269531-12.070312 3.605469-2.671875.890625-5.589844 1.621093-7.65625 3.683593.082031.609376 0 1.09375.488281 1.5 1.621094 1.417969 5.144531 1.214844 7.085937.890626 3.078126-.484376 5.914063-1.375 8.789063-2.511719 1.539063-.605469 4.375-2.105469 5.996094-2.105469.6875 0 1.617187.527344 2.183593.890625 3.769532 2.511719 6.523438 8.101563 7.25 12.515625.890626 5.46875.40625 10.976562-.199218 16.441406-1.945313 18.347656-8.140625 35.964844-19.238282 50.828125-4.375 5.871094-9.558593 11.136719-15.878906 14.984375-11.742187 7.167969-26.160156 10.328125-39.484375 13.246094l-33.941406 6.277344-43.210937 5.101562c-3.890626.40625-11.015626.160156-13.851563 3.078125.203125 1.054688.203125 1.253907 1.132813 1.863281zm0 0"/><path d="m809.796875 466.234375c-6.519531-1.292969-13.6875-1.132813-20.332031-1.335937l-42.078125-.605469-10.164063.160156c-1.984375.082031-4.292968.367187-6.238281.042969 4.171875-5.914063 7.25-12.921875 8.871094-19.96875 4.574219-.28125 9.433593-.445313 13.648437-2.429688l.121094-.605468c-2.957031-2.675782-7.613281-2.027344-11.339844-1.824219l-.890625.039062c3.15625-16.117187 3.683594-37.664062-5.953125-51.917969-2.554687-3.808593-5.832031-7.492187-10.574218-8.304687-4.332032-.726563-7.773438.769531-11.175782 3.363281-8.382812 6.355469-13.6875 16.644532-14.90625 27.054688-1.171875 9.878906.609375 24.785156 7.128906 32.925781 1.984376 2.511719 4.660157 4.617187 7.9375 5.0625 2.027344.28125 3.96875-.527344 5.550782-1.742187 1.941406-1.539063 3.320312-3.886719 4.496094-6.035157 3.402343-6.359375 5.140624-13 5.789062-20.128906.8125-9.03125.203125-21.34375-5.871094-28.753906-1.335937-1.621094-2.996094-3.039063-4.941406-3.886719-1.253906-.570312-2.714844-.691406-3.96875-1.296875 2.511719-1.539063 4.453125-2.917969 7.574219-2.511719 4.535156 2.390625 6.882812 8.910156 8.300781 13.566406 4.457031 14.539063 3.96875 32.402344-3.199219 46.007813-2.144531 4.089844-5.546875 7.898437-10.042969 9.316406-2.308593.730469-4.496093.363281-6.644531-.769531-7.367187-3.96875-11.460937-12.878906-13.566406-20.574219-3.523437-12.878906-2.1875-27.214843 4.660156-38.757812 4.65625-7.859375 11.378907-14.539063 20.410157-16.808594 5.144531-1.296875 11.136718-1.863281 15.875 1.054687 3.726562 2.308594 6.804687 6.113282 8.953124 9.921876.566407 1.050781 2.0625 4.738281 2.832032 5.304687.246094.160156.570312.121094.851562.160156 1.214844-1.292969 1.621094-1.535156 1.539063-3.441406-.121094-2.996094-1.742188-6.035156-3.160157-8.585937-3.117187-5.546876-6.519531-10.570313-11.378906-14.699219-5.304687-4.539063-11.949218-7.535157-19.074218-6.886719-7.371094.6875-13.972657 5.347656-18.511719 10.976562-7.371094 9.113282-10.894531 20.734376-14.902344 31.589844-4.132813 11.175782-9.070313 23.003906-16.242187 32.640625-4.25 5.710938-10.246094 10.613281-16.886719 13.203125-12.554688 4.902344-27.460938 5.753906-40.660157 8.183594l-53.867187 9.71875-68.203125 10.164062c-.648438-.929687-.445312-1.171874-.445312-2.265624.648437-16.6875-2.46875-31.996094-9.191407-47.265626-2.511719-5.75-5.507812-11.664062-9.800781-16.320312-2.796875-2.996094-5.996094-4.941406-9.597656-6.84375l12.632812-4.699219c13.042969 5.507813 20.453125 16.484375 27.015625 28.433594.6875 1.253906 1.171875 2.792969 2.792969 2.46875 1.011719-2.269531-.566406-6.359375-1.457031-8.667969-4.414063-11.296875-13.851563-22.070312-25.070313-26.851562-13.445312-5.75-31.507812-6.640625-45.117187-1.050782-22.191407 9.070313-36.773438 35.03125-45.5625 56.253907-3.925781 9.515625-6.925781 19.964843-13.203125 28.269531-4.414063 5.789062-10.609375 10.246094-17.292969 13.039062-9.882813 4.132813-20.980469 5.589844-31.589844 6.441407l-22.882812 1.171875c-8.867188.121094-17.777344-.523438-26.648438-1.011719l-39.40625-2.632813c-40.09375-3.078124-80.515625-6.722656-120.082031-14.335937l-23.046875-5.304687c-14.820313-3.605469-29.726563-7.65625-43.820313-13.488282-7.328124-2.996094-19.640624-8.34375-22.679687-16.28125-.527344-1.375-.6875-2.550781-.605469-4.050781.769532-.96875.929688-1.171875 2.105469-1.660156 2.265625.648437 4.292969 1.984375 6.359375 3.078125l9.636719 4.699218c12.839843 5.628907 26.125 9.882813 39.773437 13.042969 28.589844 6.722657 57.953125 10.527344 87.195313 13.160157l40.621093 3.117187 54.753907 1.703125c5.996093.203125 11.828125 1.214844 17.78125 1.660156 7.453125.566406 14.902343.566406 22.355469.242188 10.488281-.484375 21.382812-1.742188 30.699218-6.925782 4.132813-2.265624 9.71875-6.480468 10.976563-11.257812.40625-1.457031.40625-2.550781.039062-4.007812-1.578125-2.1875-3.804687-3.402344-6.4375-3.769532-5.0625-.6875-11.179687.324219-16.324219.648438l-21.058593.8125-33.777344.28125c-2.1875.121094-5.304687.203125-7.207031 1.539062-.933594.648438-1.015625 1.578125-1.214844 2.632813l.605469.6875c8.707031-.605469 17.496093-.078125 26.246093.164062l20.492188-.042969 17.535156-.726562c5.265625-.40625 10.894532-1.296875 16.199219-.8125-8.058594 4.417969-16.765625 4.78125-25.757813 5.386719-17.007812 1.175781-33.980468.203125-51.027343-.121094l-32.929688-.121094-50.949219-2.589843c-36.570312-2.308594-74.113281-5.386719-109.390624-15.796876-7.207032-2.144531-14.78125-4.859374-21.421876-8.464843-2.550781-1.375-5.0625-2.914063-6.5625-5.507813-.769531-1.335937-1.457031-3.847656-1.050781-5.34375.726563-2.59375 3.402344-3.726562 4.859375-5.875 1.296875-1.902344 2.105469-4.050781 3.441406-5.953125 4.171876-5.914062 8.625-10.773437 12.109376-17.292969 5.75 5.75 9.597656 12.394532 16.28125 17.292969 8.667968 6.316407 18.425781 9.839844 28.632812 12.71875 25.152344 7.046875 52.164062 8.707031 78.246094 8.664063 11.746094 0 35.761718-.484375 44.710937-9.355469 5.550781-5.507813 10.289063-14.457031 10.046875-22.4375-.042968-1.902344-.566406-3.117187-1.945312-4.414063-1.660156-1.539062-3.765625-2.308593-5.914063-2.832031-6.035156-1.539062-20.410156-1.90625-26.566406-2.675781l-28.105469-3.359375-78.570312-8.667969c-9.398438-.730468-18.753906-1.742187-28.191406-1.054687-1.820313.125-4.414063.285156-5.667969 1.785156-.363281.445313-.609375 1.132813-.851563 1.660156.042969-2.632812.6875-5.183593.769532-7.816406.324218-9.03125-1.417969-20.816406-7.773438-27.742187-2.148438-2.351563-4.578125-3.199219-7.496094-4.253907 18.632813-5.265625 37.300782-10.773437 56.378906-14.175781 14.578126-2.589844 29.441407-3.804688 44.144532-5.425781l28.917968-1.945313c6.03125-.203125 12.230469-.605468 18.265626.082032l-33.777344 8.746093-37.949219 10.816407c-12.191406 3.644531-26.203125 7.25-37.140625 13.769531-4.007812 2.390625-6.234375 4.496093-8.542969 8.546875 2.914063-.203125 5.667969-1.742188 8.261719-2.957032l11.824219-5.46875 17.050781-6.195312 66.945312-19.359375c18.589844-4.980469 37.058594-9.964844 56.136719-12.839844 36.285157-5.425781 73.425781-8.058593 110.078125-6.964843l39.8125 2.066406c13.445313.929687 28.632813 3.277344 41.957032.726562-11.179688-2.386718-23.246094-2.671875-34.667969-3.644531-23.492188-1.984375-47.183594-3.847656-70.753907-3.847656-5.265624 0-11.179687-.527344-16.363281.203125l-31.75 2.875c1.011719-.566406 2.023438-1.132813 3.035157-1.742188 3.199218-1.820312 6.601562-3.238281 10.046874-4.535156.605469-.160156 1.253907-.285156 1.941407-.324219 2.917969.363281 8.140625-.160156 9.964843-.324219 28.429688-2.023437 59.414063-1.578124 75.125.730469l72.902344 6.683594 25.3125 1.941406c5.0625.324219 10.652344.164063 15.511719 1.457031l.121094.488282c-5.710938 1.742187-12.878907 1.539062-18.875 2.105468l-39.082031 3.726563c-37.90625 3.644531-74.355469 12.027344-110.6875 23.164063-16.078126 4.941406-33.492188 10.167968-47.789063 19.28125-10.527344 6.722656-17.375 17.332031-19.964844 29.523437-1.902343 8.910156-.285156 19.15625 4.777344 26.808594 3.160156 4.78125 8.304687 9.277343 14.09375 10.289062 5.550781.972657 11.382813-.648437 15.917969-3.929687 7.167968-5.183594 11.097656-14.09375 12.472656-22.597656.527344-2.957032.566406-5.914063.40625-8.910157-.324219-7.980469-4.132812-16.039062-10.125-21.261719-5.265625-4.617187-10.289062-4.820312-16.929688-4.375 6.074219-2.472656 12.472657-4.941406 19.15625-4.375 6.117188.527344 11.257813 3.726563 15.027344 8.425782 6.722656 8.421875 8.300782 20.9375 7.046875 31.347656-1.335937 11.214844-6.441406 23.328125-15.753906 30.210938-4.417969 3.28125-9.398437 5.46875-14.742187 6.683593-6.117188 1.417969-12.636719 1.699219-18.875 2.144531l-48.4375 1.136719-26.890626.726563c-27.175781.164062-54.71875-1.457032-81.445312-6.519532-10.371094-1.945312-21.019531-4.699218-30.984375-8.101562l-18.144531-6.355469c-2.066406-.609375-4.210938-1.460937-6.316406-1.703125-1.054688-.121094-.933594.042969-1.660157.609375-.324219 1.171875-.324219 1.78125 0 2.957031 3.15625 3.925782 10.652344 5.832032 15.429688 7.449219 19.035156 6.441407 38.921875 10.691407 58.847656 13.164063 24.582031 3.117187 49.53125 2.792968 74.234375 3.238281 22.195312.40625 44.996094 1.660156 67.148438-.121094 10.125-.808593 20.816406-1.78125 29.972656-6.398437 10.851562-5.425782 18.101562-15.105469 21.867187-26.488282 4.214844-12.714843 4.738281-29.160156-1.457031-41.347656-4.332031-8.507812-11.300781-14.296875-20.289062-17.214844 11.296874-5.546874 23.246093-8.746093 35.234374-12.351562 29.566407-8.789062 60.261719-15.308594 90.882813-18.953125l65.566406-5.386719 38.070313-2.671875c1.5 3.96875 4.214844 7.328125 8.910156 9.230469 4.539062 1.863281 9.640625 1.824219 14.460938 1.945312 5.789062.203126 11.542968.285157 17.332031.285157 4.902343 0 10.734375.648437 13.527343-4.292969 1.175782-2.105469 1.378907-4.617188 1.703126-6.96875.160156-1.253906.324218-2.507812.445312-3.765625l92.175781-4.777344 23.246094.363281c22.761719.203126 46.699219-.808593 68.933594 4.496094 3.523437.808594 8.421875 1.78125 10.976562 4.453125 5.222657 5.386719 4.613281 32.5625 4.535157 40.257813l.527343.40625 1.902344-.488282c.929687-.847656 1.011719-1.539062 1.171875-2.710937 1.09375-7.859375 1.21875-16 .769531-23.9375-.242187-4.453125-.484375-9.273437-2.0625-13.484375-.8125-2.148438-1.984375-3.808594-3.847656-5.144531-3.808594-2.59375-9.679687-3.808594-14.136719-4.699219-21.058594-4.292969-41.671875-4.046875-63.058594-4.492188-1.132812 0-13.484374-.203124-17.980468-.527343-4.132813-.285157-7.777344-.488281-11.378906-.609375-2.878907-4.820313-7.65625-8.179688-12.433594-11.015625-2.957032-1.742188-5.957032-3.484375-9.074219-4.941407-2.792969-1.296874-6.359375-3.078124-9.558594-2.753906-1.578125-.363281-3.199219-.605468-4.816406-.808594-4.496094-.527343-9.074219-.769531-13.570313-1.09375-18.953124-1.296874-37.988281-1.863281-56.984374-1.742187-2.386719 0-4.777344.082031-7.207032.121094l.242188-24.21875c-.851563-1.09375-1.050782-1.175781-2.390625-1.660157-.929688.242188-1.335938.324219-2.347657.203126l1.132813-1.5c1.054687-1.417969 2.148437-2.671876 2.269531-4.496094.082032-.96875 0-1.941406-.730468-2.632813-3.5625-3.644531-27.578126-4.65625-33.25-5.019531l-98.859376-3.199219c-20.371093.324219-40.664062 1.171875-60.953124 3.5625-4.050782.488281-9.113282.648438-12.960938 1.945313-.847656.28125-1.738281.726562-2.550781 1.296875-1.375.726562-2.632813 1.738281-3.804688 2.875-.851562.808593-1.660156 1.660156-2.472656 2.550781-1.296875 1.132812-2.511719 2.429688-3.605469 3.808594-.078125.039062-.121094.078125-.199218.121094-5.507813 3.683593-10.652344 9.070312-15.554688 13.605468l-26.769531 24.664063c-3.847657-.039063-7.734375-.121094-11.582031-.039063-3.6875.082032-7.453126.082032-11.058594.808594-3.199219.648438-6.722656 2.148438-8.21875 5.265625-1.460938 2.996094-1.785156 6.722656-1.742188 10.085937-.8125.28125-1.621094.605469-2.472656.890626-.929688.203124-1.863281.445312-2.792969.730468l-46.128906 4.128906c-40.5 3.644532-81.648437 4.65625-121.664063 12.394532-11.664062 2.265625-23.125 5.464844-34.546874 8.664062l-17.414063 5.632813c-6.15625 2.308593-11.703125 4.574219-16.238281 9.554687-6.644532 7.292969-9.925782 17.941406-9.4375 27.742188.605468 12.113281 6.316406 23.007812 15.308594 31.066406 3.238281 2.875 6.5625 3.683594 10.773437 4.210938-3.320313 2.917968-8.382813 6.519531-8.503906 11.339843-.082031 2.671875 1.941406 5.265625 1.660156 7.695313-1.660156-.40625-3.078125-.160156-4.457031 1.132812-1.941406-.324218-5.507813-1.457031-7.328125-1.335937-1.054688.082031-3 1.132812-3.890625 1.703125-1.375.929687-2.386719 2.265625-2.710938 3.925781-.851562 4.171875.6875 8.992187 3.078125 12.433594 2.226563 3.121093 5.464844 5.507812 8.585938 7.65625 11.460937 7.773437 26.726562 13 39.972656 16.929687 6.277344 1.863282 13.40625 3.035156 19.15625 6.195313 5.425781 2.957031 9.394531 8.992187 13.769531 13.285156 4.050782 4.007813 8.261719 7.046875 13.039063 10.164063-14.617188-1.699219-29.644531-2.144532-44.386719-2.390626-4.453125-.078124-10.003906-.808593-14.296875.324219 0 0-18.265625 3.726563-27.539063 4.660157-10.894531 1.09375-21.34375 2.632812-31.914062 5.507812 6.925781 1.417969 14.417969.929688 21.503906 1.292969l64.761719 2.878906 101.65625 10.042969 43.332031 3.96875 88.292969 7.574218c17.292969.648438 34.421875.324219 51.554687-2.1875 3.644532-.527343 9.113282-3.121093 9.558594-4.210937-.285156-2.757813-4.617187-9.074219-6.117187-11.300781-2.46875-3.644532-4.859375-6.886719-6.964844-9.640625-2.1875-2.875-4.699219-8.707031-6.238281-11.945313 1.945312-1.214844 3.96875-2.472656 5.710937-3.929687 1.335938-1.132813 2.917969-3.199219 4.414063-3.96875 5.710937 18.507812 16.6875 36.449219 34.425781 45.683593l8.425781 3.484376c-1.054687 1.171874-2.066406 2.347656-3.484375 3.117187-4.375 2.347656-9.964843 3.199219-14.703125 4.457031l-25.351562 7.046875c-6.5625 1.902344-13.039063 3.886719-19.277344 6.640625-2.753906 1.214844-6.035156 2.632813-8.261719 4.738282-1.09375 1.054687-1.214843 1.742187-1.417969 3.199218.484376 1.214844.527344 1.296875 1.578126 2.023438 2.714843.203125 5.429687-.769532 7.980468-1.496094l10.972656-3.039062 28.027344-6.804688c22.074219-5.101562 43.457032-13.160156 64.800782-20.613281l48.074218-15.429688 40.417969-10.085937 51.070313-11.90625 47.628906-9.71875 27.984375-6.238282c7.289062-1.863281 14.460937-4.089843 21.871093-5.425781 26.285157-4.78125 52.851563-8.667969 79.542969-9.84375l28.914063-1.375c2.472656-.242187 6.480468-.285156 8.464844-1.863281l.851562-.890625zm-92.015625-62.8125c2.1875.808594 3.847656 2.710937 4.65625 4.859375 1.824219 4.65625 1.054688 10.488281-1.171875 14.902344-1.703125 3.363281-3.6875 4.578125-7.089844 5.628906-1.941406.082031-3.644531.125-5.386719-.929688-2.710937-1.660156-3.722656-4.253906-4.453124-7.25-1.011719-4.332031-.40625-9.761718 2.023437-13.484374 1.863281-2.835938 3.847656-3.890626 7.128906-4.539063 1.378907.164063 2.957031.285156 4.292969.8125zm-654.480469 44.671875 4.210938 1.335938c15.3125 4.617187 31.589843 7.371093 47.386719 9.839843l32.96875 4.699219 99.710937 5.710938c3.199219.121093 11.054687-.203126 13.203125 2.023437-2.632812.527344-5.832031.164063-8.507812.164063l-20.734376-.527344c-44.671874-1.457032-89.628906-5.347656-133.527343-14.09375l-24.34375-5.550782c-1.941407-.484374-3.847657-1.292968-5.789063-1.742187-1.257812-.320313-2.351562-.929687-3.523437-1.171875-1.335938-.285156-2.632813-.8125-3.96875-1.257812.972656-.078126 1.941406.246093 2.914062.570312zm214.894531-76.464844c3.078126-.40625 6.359376.242188 9.070313 1.742188 5.265625 2.914062 8.789063 9.03125 10.367187 14.699218 2.066407 7.613282-.078124 17.820313-4.007812 24.625-2.632812 4.535157-5.792969 7.734376-10.976562 9.070313-3.199219.40625-6.925782-.160156-9.800782-1.496094-4.128906-1.945312-7.085937-6.074219-8.625-10.289062-3.160156-8.664063-1.984375-17.777344 1.902344-26 2.671875-5.710938 5.953125-10.164063 12.070312-12.351563zm386.410157-75.210937c2.996093 1.785156 5.914062 3.769531 8.179687 6.320312-1.417968 0-2.875 0-4.414062.039063l-6.964844.324218c0-3.199218-.285156-6.398437-1.296875-9.273437 1.539063.851563 3.039063 1.699219 4.496094 2.589844zm-213.476563 6.15625c7.046875-6.679688 18.46875-7.289063 27.703125-5.425781 8.097657 1.660156 15.59375 5.222656 21.910157 10.410156zm57.714844-.726563s-1.460938 1.457032-3.242188 3.117188c-7.695312-6.804688-17.292968-11.460938-27.417968-13.082032-11.867188-1.941406-25.796875-.039062-33.332032 10.042969l-9.273437-.929687-52.691406-4.941406c13.648437-3.359376 27.417969-6.195313 41.472656-7.816407 22.03125-2.550781 44.226563-2.835937 66.378906-2.347656 9.71875.203125 20.734375-.121094 30.457031.28125zm71.398438 15.996094c-.203126 1.253906-.242188 3.320312-1.578126 3.929688-1.699218.808593-5.0625.203124-6.886718.203124-4.453125 0-8.910156-.082031-13.363282-.203124-4.089843-.121094-8.382812.039062-12.433593-.609376-3.28125-.527343-5.992188-1.863281-7.777344-4.453124-.402344-.609376-.769531-1.296876-1.050781-2.066407-.566406-1.417969-.851563-2.875-1.011719-4.375-.285156-2.792969.039063-5.667969.363281-8.421875 0-.042968.039063-.082031.082032-.121094 2.792968-1.378906 5.910156-1.703124 9.152343-1.742187 4.332031-.042969 8.667969.203125 12.960938.28125h.160156c1.417969.042969 2.835937.082031 4.253906.121094.726563 0 1.457031.042969 2.226563.042969 2.347656.082031 4.699218.121093 7.046875.203124 2.144531.039063 4.453125-.121093 6.519531.203126 1.902344.320312 1.945312 1.984374 2.066406 3.644531.082032.96875.121094 1.941406.121094 2.914062 0 2.1875-.160156 4.375-.40625 6.5625-.078125 1.335938-.242188 2.632813-.445312 3.886719zm-39.203126-24.179688 4.050782-7.371093c4.578125-.199219 9.113281-.363281 13.6875-.484375l.082031 7.816406c-3.808594-.121094-7.613281-.203125-11.421875-.242188-2.144531-.042968-4.292969 0-6.398438.28125zm52.652344-7.976562c8.949219.203125 17.898438.527344 26.808594 1.050781 4.457031.246094 8.910156.527344 13.40625.851563 3.808594.285156 7.695312.40625 11.460938 1.09375 3.28125.609375 6.84375 1.660156 8.910156 4.496094 2.105468 2.875 2.1875 6.683593 2.066406 10.207031l-20.007812 1.132812s-38.554688 1.945313-48.519532 2.46875c0-4.414062-.527344-9.554687-4.777344-11.785156-2.066406-1.050781-4.375-1.09375-6.644531-1.132813-3.035156-.082031-6.074219-.160156-9.109375-.242187-.648437 0-1.296875-.042969-1.945312-.042969l.082031-8.136718c9.476563-.164063 18.871094-.164063 28.269531.039062zm-33.902344-23.167969c.570313 2.269531-.242187 5.996094-.402343 8.386719l-.445313 9.839844c-3.644531.082031-7.332031.242187-10.976562.363281l.730468-1.335937c3.078126-5.46875 5.992188-12.839844 10.367188-17.253907zm-28.105468-15.511719 14.011718 1.460938c1.703126.203125 4.214844.160156 5.429688 1.335938-.285156.363281-.324219.484374-.730469.808593-3.28125 2.835938-10.003906 1.417969-14.132812 1.214844l-81.527344-2.875c.6875-.566406 5.792969-4.738281 6.5625-5.46875 23.003906.488281 47.546875 1.742187 70.386719 3.523437zm-173.785156 1.945313c2.226562-.28125 4.453124-.730469 6.441406-1.011719l17.007812-2.023437 42.527344-2.511719c10.609375-.203125 21.21875-.203125 31.789062-.082031-.96875.808593-1.902343 1.621093-2.875 2.390625-.445312.363281-.929687.769531-1.417968 1.132812 0 0 0 0-.039063 0-.121093.082032-.285156.203125-.40625.285156-.28125.199219-.523437.363282-.808593.566407-.445313.28125-.890626.566406-1.378907.808593-7.046875-.527343-14.335937-.203124-21.382812-.242187-10.691407 0-22.070313-.566406-32.640625.726563l-23.371094 1.539062c-5.832031.527344-12.433594.894531-17.980469 2.835938-.164062-.121094-1.257812.164062-2.105469.324218 2.144532-1.660156 4.292969-3.320312 6.640626-4.738281zm-25.921876 23.691406 12.03125-10.570312c3.683594-3.117188 6.925782-6.113281 11.664063-7.570313 3.847656-1.054687 8.097656-1.21875 12.066406-1.621094l28.191407-2.066406 6.15625-.40625c.320312.042969 19.800781-.078125 31.386718-.199218-1.984375 1.335937-3.847656 2.832031-5.46875 4.574218-1.375 1.5-1.457031 3.402344.851563 3.441406 7.128906.164063 11.421875.324219 19.316406.488282 3.96875.082031 17.457031.648437 21.425781.726562 3.644532.082032 4.578125-3.15625 6.316406-5.871094.445313-.730468.691407-1.621093.367188-2.308593l56.496094 2.105469c3.523437.648437 7.492187.488281 11.058594.730468l-19.359376 26.527344c-43.011718-1.78125-87.277343-1.703125-129.601562 7.371094-9.355469 2.023437-18.628906 4.414062-27.863281 6.925781-9.4375-.40625-18.953125-.488281-26.894531.082031-2.792969.199219-10.691407.644532-12.351563.6875l-22.234375.972656zm-56.210937 27.824219c1.214844-2.511719 5.101563-3.078125 7.574219-3.320312 4.738281-.445313 9.554687-.484376 14.335937-.40625-1.78125.851562-3.808593 1.296874-5.0625 2.351562-.324219.121094-.6875.242188-1.054687.402344-3.238282.8125-6.316406 2.390625-9.3125 3.96875-2.554688 1.378906-5.144532 2.511718-7.816406 3.566406.121093-2.269531.402343-4.617188 1.335937-6.5625zm-249.035156 85.210938c-2.269531-7.449219-2.269531-15.832032 1.539062-22.800782 1.050781-1.941406 2.144531-3.96875 4.375-4.65625.769531-.039062 1.375-.039062 2.144531.121094 1.78125.445312 3.402344 2.550781 4.332032 4.050781 2.632812 4.332031 3.808594 10.609375 2.632812 15.59375l-1.941406 7.9375c-1.054688 3.199219-1.90625 6.679688-5.105469 8.300781-1.132812.164063-1.902343.242188-2.953125-.203124-2.632812-1.132813-4.253906-5.789063-5.023437-8.34375zm11.21875 18.996093c-1.863281-1.253906-3.402344-2.792969-4.980469-4.375 2.996094-.6875 5.222656-.929687 7.613281-3.117187 5.34375-4.859375 7.855469-13.769532 8.179688-20.734375.285156-6.480469-1.050781-14.136719-5.667969-18.996094-2.714844-2.875-5.792969-3.6875-9.601562-3.808594h-.402344c3.238281-2.710937 6.15625-4.25 10.246094-5.304687 1.457031-.082032 2.996093-.242188 4.414062.042968 3.484375.6875 5.667969 2.753907 7.574219 5.628907 5.667969 8.625 5.386719 23.082031 3.480469 32.683593-1.660157 8.339844-5.183594 16.765626-12.472657 21.625-3.199219-.851562-5.589843-1.984374-8.382812-3.644531zm441.855469 69.457031c-1.621094 15.351563-8.0625 30.375-20.414063 40.136719-7.128906 5.667969-14.820313 8.222657-23.894531 7.207031-4.820313-.6875-9.761719-2.792968-13.769532-5.585937-10.894531-7.535156-16.886718-21.183594-19.398437-33.777344l-.566406-3.402343c-1.664063-16.808594 2.875-34.101563 13.726562-47.222657 8.019531-9.679687 18.429688-14.984375 30.902344-16.078125l3.886719.160156c6.847656.648438 13.449218 3.28125 17.820312 8.707032 10.652344 13 13.40625 33.695312 11.707032 49.855468zm114.65625-6.964843-14.339844-.808594c1.011718-.570313 2.550781-.691406 3.6875-.894531l9.960937-1.699219c18.226563-2.996094 36.574219-6.277344 54.960938-7.734375l.6875-.042969c4.738281.082031 9.234375 7.089844 12.070312 10.53125zm90.152343 8.140625c-2.269531-.527344-4.214843-1.984375-6.035156-3.402344-6.644531-5.183594-11.058594-11.828125-15.351563-18.953125l8.667969.769531c.609375.039063 2.226563 0 2.714844.203125.890625.402344 6.234375 8.382813 7.371094 9.675781 4.574219 5.265626 9.152343 9.4375 15.105469 13.042969zm0 0"/><path d="m445.824219 422.253906-6.441407.242188c-11.214843 2.511718-19.679687 9.800781-25.796874 19.398437-7.816407 12.351563-10.609376 28.027344-7.332032 42.28125 2.1875 9.558594 6.441406 20.453125 15.109375 25.960938 1.863281 1.175781 3.925781 2.105469 6.074219 2.472656l.605469.121094c6.117187.972656 13.042969-1.660157 17.863281-5.265625 10.328125-7.734375 15.753906-22.273438 17.453125-34.667969 1.660156-12.109375-.6875-25.351563-8.300781-35.152344-4.535156-5.792969-10.125-9.03125-17.457032-9.84375l-2.589843-.242187c5.507812-1.175782 11.703125-1.902344 17.007812.484375 8.34375 4.617187 13.285157 12.921875 15.917969 21.910156 4.332031 14.824219 1.621094 32.320313-5.792969 45.808594-4.453125 8.097656-10.972656 15.066406-19.359375 19.074219-2.710937 1.296874-5.667968 2.023437-8.21875 3.5625 8.867188.445312 15.589844-1.132813 22.355469-7.167969 12.269531-10.894531 17.738281-28.105469 18.546875-44.0625.648438-12.839844-2.226562-26.648438-11.175781-36.371094-4.699219-5.101563-11.460938-8.300781-18.46875-8.542969zm-8.707031 32.441406c2.671874-.164062 3.402343-.042968 5.953124.847657 3.402344 1.175781 6.113282 4.375 6.925782 7.9375 1.175781 5.308593 1.296875 9.234375.039062 13.8125-1.660156 6.035156-4.332031 8.910156-9.4375 10.570312-3.199218.527344-6.074218.648438-8.949218-1.09375-3.804688-2.308593-6.4375-7.085937-7.453126-11.300781-1.132812-4.453125-.523437-9.515625 1.945313-13.445312 2.59375-4.128907 6.320313-6.316407 10.976563-7.328126zm0 0"/></g></svg>