<svg xmlns="http://www.w3.org/2000/svg" xmlns:xlink="http://www.w3.org/1999/xlink" width="1728" zoomAndPan="magnify" viewBox="0 0 1296 1727.999927" height="2304" preserveAspectRatio="xMidYMid meet" version="1.0"><defs><clipPath id="a9a46445d6"><path d="M 60 257 L 1231 257 L 1231 1466.039062 L 60 1466.039062 Z M 60 257 " clip-rule="nonzero"/></clipPath></defs><path fill="#dd4047" d="M 1100.152344 1025.648438 C 1100.152344 1023.097656 1099.144531 1020.660156 1097.34375 1018.867188 L 507.777344 429.972656 C 504.027344 426.230469 497.960938 426.230469 494.210938 429.972656 C 484.511719 439.671875 471.617188 445.007812 457.867188 445.007812 C 444.128906 445.007812 431.226562 439.664062 421.523438 429.972656 C 417.773438 426.222656 411.710938 426.230469 407.957031 429.972656 L 185.09375 652.558594 C 183.289062 654.363281 182.285156 656.800781 182.285156 659.34375 C 182.285156 661.894531 183.289062 664.332031 185.09375 666.132812 C 202.882812 683.933594 205.203125 711.699219 190.59375 732.164062 C 187.867188 735.980469 188.300781 741.210938 191.609375 744.527344 L 677.84375 1230.273438 C 677.84375 1230.285156 677.84375 1230.285156 677.855469 1230.285156 L 782.429688 1334.671875 C 785.75 1337.980469 790.949219 1338.402344 794.742188 1335.707031 C 815.308594 1321.179688 843.125 1323.492188 860.910156 1341.195312 C 862.773438 1343.054688 865.230469 1343.984375 867.675781 1343.984375 C 870.132812 1343.984375 872.589844 1343.046875 874.457031 1341.183594 L 1097.332031 1118.609375 C 1099.136719 1116.804688 1100.144531 1114.367188 1100.144531 1111.816406 C 1100.144531 1109.273438 1099.136719 1106.828125 1097.332031 1105.03125 C 1077.320312 1085.019531 1077.320312 1052.457031 1097.332031 1032.441406 C 1099.144531 1030.636719 1100.152344 1028.191406 1100.152344 1025.648438 Z M 808.375 899.859375 C 808.375 940.921875 792.371094 979.511719 763.339844 1008.496094 C 763.328125 1008.503906 763.328125 1008.503906 763.320312 1008.515625 C 734.335938 1037.546875 695.746094 1053.550781 654.683594 1053.550781 C 613.628906 1053.550781 575.011719 1037.546875 545.972656 1008.503906 C 486.085938 948.628906 486.085938 851.113281 545.972656 791.148438 C 575.953125 761.195312 615.328125 746.226562 654.683594 746.226562 C 694.039062 746.226562 733.394531 761.203125 763.328125 791.136719 C 792.371094 820.1875 808.375 858.796875 808.375 899.859375 Z M 808.375 899.859375 " fill-opacity="1" fill-rule="nonzero"/><g clip-path="url(#a9a46445d6)"><path fill="#dd4047" d="M 1229.28125 431.441406 C 1228.023438 429.234375 1225.933594 427.601562 1223.488281 426.929688 L 791.066406 308.039062 L 778.171875 264.144531 C 776.683594 259.070312 771.367188 256.144531 766.265625 257.640625 L 499.8125 335.765625 L 464.6875 300.644531 C 460.9375 296.890625 454.875 296.890625 451.125 300.644531 L 381.324219 370.441406 L 267.941406 403.65625 C 265.492188 404.367188 263.441406 406.027344 262.210938 408.261719 C 260.996094 410.488281 260.714844 413.117188 261.425781 415.5625 L 278.339844 473.234375 L 62.855469 688.527344 C 61.050781 690.339844 60.042969 692.777344 60.042969 695.328125 C 60.042969 697.882812 61.050781 700.320312 62.855469 702.121094 L 462.847656 1101.664062 L 511.066406 1265.910156 C 511.066406 1265.917969 511.078125 1265.925781 511.085938 1265.945312 L 548.410156 1392.761719 C 549.636719 1396.945312 553.457031 1399.652344 557.609375 1399.652344 C 558.5 1399.652344 559.414062 1399.527344 560.316406 1399.269531 L 715.242188 1353.773438 L 824.921875 1463.328125 C 826.792969 1465.199219 829.25 1466.140625 831.707031 1466.140625 C 834.164062 1466.140625 836.621094 1465.199219 838.488281 1463.339844 L 1226.777344 1075.539062 C 1228.582031 1073.734375 1229.589844 1071.300781 1229.589844 1068.746094 C 1229.589844 1066.195312 1228.582031 1063.75 1226.777344 1061.953125 L 1094.789062 930.101562 L 1230.195312 438.742188 C 1230.863281 436.277344 1230.546875 433.65625 1229.28125 431.441406 Z M 762.457031 278.75 L 895.125 730.617188 L 838.394531 673.945312 L 755.230469 390.972656 C 753.746094 385.898438 748.4375 383 743.34375 384.46875 C 731.007812 388.074219 718.023438 386.664062 706.742188 380.515625 C 695.460938 374.363281 687.265625 364.214844 683.675781 351.933594 C 682.96875 349.496094 681.308594 347.433594 679.074219 346.207031 C 676.835938 344.976562 674.1875 344.691406 671.769531 345.417969 L 546.277344 382.222656 L 515.28125 351.222656 Z M 282.542969 419.378906 L 352.878906 398.773438 L 293.816406 457.785156 Z M 564.09375 1378.132812 L 529.488281 1260.535156 C 529.488281 1260.527344 529.488281 1260.515625 529.488281 1260.507812 L 491.140625 1129.910156 L 699.757812 1338.296875 Z M 831.707031 1442.96875 L 83.214844 695.328125 L 392.855469 385.964844 C 392.933594 385.886719 393.039062 385.867188 393.125 385.792969 L 457.914062 321 L 536.714844 399.800781 C 536.800781 399.886719 536.925781 399.914062 537.019531 400 L 1206.417969 1068.738281 Z M 1081.117188 907.582031 L 1079.199219 914.519531 L 1049.484375 884.835938 L 1146.914062 531.316406 C 1147.585938 528.859375 1147.269531 526.242188 1146.003906 524.023438 C 1144.746094 521.816406 1142.65625 520.1875 1140.210938 519.515625 C 1128.351562 516.253906 1118.449219 508.558594 1112.355469 497.84375 C 1106.265625 487.136719 1104.699219 474.730469 1107.964844 462.910156 C 1108.632812 460.453125 1108.316406 457.835938 1107.050781 455.617188 C 1105.792969 453.402344 1103.710938 451.78125 1101.257812 451.097656 L 823.792969 374.730469 C 818.996094 373.425781 814.121094 376.074219 812.382812 380.648438 L 797.417969 329.675781 L 1209.144531 442.878906 Z M 1081.117188 907.582031 " fill-opacity="1" fill-rule="nonzero"/></g><path fill="#dd4047" d="M 717.105469 823.882812 L 700.257812 841.085938 C 693.539062 836.863281 685.816406 834.523438 677.71875 834.523438 C 666.589844 834.523438 655.730469 839.011719 647.921875 846.832031 C 640.042969 854.710938 635.515625 865.617188 635.515625 876.746094 C 635.515625 887.867188 640.042969 898.777344 647.921875 906.652344 C 652.226562 910.960938 654.703125 916.878906 654.703125 922.886719 C 654.703125 928.976562 652.277344 934.792969 647.871094 939.273438 C 639.304688 947.964844 623.847656 947.964844 615.289062 939.273438 C 610.945312 934.867188 608.554688 929.046875 608.554688 922.886719 C 608.554688 916.8125 610.992188 910.894531 615.242188 906.660156 C 618.992188 902.910156 618.992188 896.847656 615.25 893.085938 C 611.5 889.335938 605.425781 889.34375 601.675781 893.078125 C 593.855469 900.894531 589.367188 911.757812 589.367188 922.886719 C 589.367188 930.867188 591.660156 938.484375 595.773438 945.144531 L 578.628906 962.367188 C 574.886719 966.128906 574.90625 972.191406 578.660156 975.941406 C 580.53125 977.804688 582.984375 978.734375 585.433594 978.734375 C 587.898438 978.734375 590.355469 977.785156 592.234375 975.914062 L 609.3125 958.769531 C 615.914062 962.894531 623.53125 965.207031 631.589844 965.207031 C 642.988281 965.207031 653.636719 960.78125 661.554688 952.742188 C 669.515625 944.644531 673.902344 934.054688 673.902344 922.894531 C 673.902344 911.84375 669.371094 900.972656 661.496094 893.09375 C 657.1875 888.789062 654.710938 882.828125 654.710938 876.757812 C 654.710938 870.683594 657.1875 864.726562 661.503906 860.40625 C 670.023438 851.851562 685.203125 851.675781 694.289062 860.621094 C 703.078125 869.617188 702.980469 884.183594 694.078125 893.09375 C 690.328125 896.847656 690.328125 902.910156 694.078125 906.660156 C 697.828125 910.414062 703.894531 910.414062 707.644531 906.660156 C 721.554688 892.75 723.609375 871.335938 713.679688 854.84375 L 730.84375 837.316406 C 734.546875 833.523438 734.488281 827.453125 730.6875 823.75 C 726.910156 820.046875 720.835938 820.09375 717.105469 823.882812 Z M 717.105469 823.882812 " fill-opacity="1" fill-rule="nonzero"/></svg>