<svg xmlns="http://www.w3.org/2000/svg" xmlns:xlink="http://www.w3.org/1999/xlink" width="500" zoomAndPan="magnify" viewBox="0 0 375 262.499992" height="350" preserveAspectRatio="xMidYMid meet" version="1.0"><defs><clipPath id="6ae9c6b508"><path d="M 4.558594 5.914062 L 360 5.914062 L 360 255.191406 L 4.558594 255.191406 Z M 4.558594 5.914062 " clip-rule="nonzero"/></clipPath><clipPath id="3373e644d3"><path d="M 289 12 L 369.117188 12 L 369.117188 93 L 289 93 Z M 289 12 " clip-rule="nonzero"/></clipPath></defs><g clip-path="url(#6ae9c6b508)"><path fill="#51abb2" d="M 358.960938 143.03125 L 350 79.820312 C 346.714844 56.640625 328.183594 38.488281 304.941406 35.675781 L 62.578125 6.34375 C 60.488281 6.09375 58.367188 5.964844 56.273438 5.964844 C 27.761719 5.964844 4.5625 29.199219 4.5625 57.761719 L 4.5625 203.296875 C 4.5625 231.863281 27.753906 255.105469 56.257812 255.105469 C 56.261719 255.105469 56.261719 255.105469 56.261719 255.105469 C 59.855469 255.105469 63.480469 254.726562 67.042969 253.976562 L 318.367188 200.980469 C 331.269531 198.261719 342.539062 190.816406 350.101562 180.015625 C 357.664062 169.21875 360.8125 156.085938 358.960938 143.03125 Z M 317.082031 194.882812 L 65.753906 247.878906 C 37.433594 253.851562 10.796875 232.242188 10.796875 203.296875 L 10.796875 57.761719 C 10.796875 30.429688 34.695312 9.246094 61.828125 12.53125 L 304.195312 41.863281 C 324.675781 44.339844 340.933594 60.273438 343.828125 80.699219 L 352.792969 143.910156 C 356.160156 167.648438 340.546875 189.933594 317.082031 194.882812 Z M 317.082031 194.882812 " fill-opacity="1" fill-rule="nonzero"/></g><path fill="#dd4047" d="M 18.238281 60.925781 L 18.238281 200.136719 C 18.238281 227.824219 43.71875 248.488281 70.808594 242.777344 L 311.210938 192.085938 C 333.652344 187.355469 348.585938 166.035156 345.367188 143.328125 L 336.792969 82.863281 C 334.023438 63.328125 318.46875 48.089844 298.882812 45.71875 L 67.054688 17.664062 C 41.101562 14.519531 18.238281 34.78125 18.238281 60.925781 Z M 18.238281 60.925781 " fill-opacity="1" fill-rule="nonzero"/><g clip-path="url(#3373e644d3)"><path fill="#f29727" d="M 369.066406 52.175781 C 338.167969 52.175781 329.09375 61.246094 329.09375 92.148438 C 329.09375 61.25 320.023438 52.175781 289.121094 52.175781 C 320.019531 52.175781 329.09375 43.101562 329.09375 12.203125 C 329.09375 43.101562 338.167969 52.175781 369.066406 52.175781 Z M 369.066406 52.175781 " fill-opacity="1" fill-rule="nonzero"/></g></svg>