<svg height="350" preserveAspectRatio="xMidYMid meet" viewBox="0 0 375 262.499992" width="500" xmlns="http://www.w3.org/2000/svg" xmlns:xlink="http://www.w3.org/1999/xlink" zoomAndPan="magnify"><clipPath id="a"><path d="m10 18.246094h352v213.753906h-352zm0 0"/></clipPath><clipPath id="b"><path d="m330 21h44.640625v46h-44.640625zm0 0"/></clipPath><clipPath id="c"><path d="m.355469 199h44.644531v44.566406h-44.644531zm0 0"/></clipPath><path d="m316.484375 46.808594-264.816406-13.15625c-13.917969-.695313-25.480469 10.304687-25.074219 23.855468l4.046875 136.980469c.394531 13.34375 12.253906 23.625 25.9375 22.464844l226.4375-19.222656c9.589844-.8125 17.738281-7.15625 20.671875-16.074219l34.316406-104.589844c4.765625-14.519531-5.886718-29.480468-21.519531-30.257812zm0 0" fill="#dd4047"/><g clip-path="url(#a)"><path d="m360.734375 55.722656h-3.507813c1.175782 4.488282 1.066407 9.265625-.394531 13.851563l-38.207031 119.695312c-3.0625 9.585938-11.5 16.347657-21.53125 17.210938l-252.089844 22.011719c-2.683594.226562-5.316406.046874-7.851562-.550782l-2.777344 2.777344c2.691406.835938 5.515625 1.28125 8.402344 1.28125.847656 0 1.6875-.035156 2.535156-.121094l252.089844-22c11.398437-.992187 20.996094-8.675781 24.480468-19.582031l38.207032-119.695313c1.554687-4.90625 1.757812-10.019531.644531-14.878906zm-322.445313-33.65625c.441407 0 .871094.011719 1.316407.035156l294.796875 15.070313c2.667968.144531 5.230468.683594 7.648437 1.601563v-3.625c-2.382812-.777344-4.882812-1.257813-7.46875-1.386719l-294.808593-15.070313c-7.851563-.394531-15.585938 2.523438-21.222657 8.03125-5.613281 5.503906-8.714843 13.164063-8.5 21.03125l4.511719 156.761719c.0625 2.132813.347656 4.214844.875 6.226563l2.875-2.875c-.207031-1.125-.300781-2.273438-.335938-3.445313l-4.511718-156.765625c-.207032-7.027344 2.453125-13.585938 7.46875-18.492188 4.714844-4.609374 10.832031-7.097656 17.355468-7.097656zm0 0" fill="#dd4047"/></g><g clip-path="url(#b)"><path d="m357.992188 46.792969c5.9375-.011719 11.683593-.535157 16.566406-1.613281-4.738282-1.59375-10.402344-2.71875-16.300782-3.363282 2.320313-2.632812 4.273438-5.421875 5.601563-8.152344-2.847656 1.03125-5.828125 2.679688-8.691406 4.714844-.011719-5.933594-.539063-11.679687-1.613281-16.5625-1.59375 4.738282-2.71875 10.398438-3.363282 16.300782-2.636718-2.324219-5.425781-4.273438-8.152344-5.601563 1.027344 2.847656 2.667969 5.828125 4.703126 8.691406-5.9375.011719-11.683594.535157-16.554688 1.613281 4.742188 1.59375 10.390625 2.730469 16.292969 3.363282-2.324219 2.632812-4.273438 5.410156-5.589844 8.140625 2.847656-1.03125 5.828125-2.667969 8.6875-4.703125.011719 5.933594.539063 11.679687 1.617187 16.550781 1.589844-4.738281 2.730469-10.398437 3.363282-16.300781 2.632812 2.320312 5.421875 4.273437 8.140625 5.601562-1.03125-2.824218-2.671875-5.804687-4.707031-8.679687zm0 0" fill="#f29727"/></g><g clip-path="url(#c)"><path d="m28.378906 223.742188c5.910156-.589844 11.574219-1.675782 16.335938-3.222657-4.871094-1.125-10.617188-1.699219-16.554688-1.769531 2.058594-2.851562 3.734375-5.804688 4.789063-8.65625-2.742188 1.304688-5.542969 3.234375-8.199219 5.53125-.585938-5.914062-1.675781-11.574219-3.21875-16.339844-1.125 4.871094-1.699219 10.617188-1.773438 16.542969-2.847656-2.058594-5.804687-3.734375-8.652343-4.789063 1.292969 2.742188 3.21875 5.542969 5.519531 8.1875-5.902344.585938-11.578125 1.664063-16.328125 3.222657 4.871094 1.125 10.605469 1.710937 16.542969 1.769531-2.058594 2.847656-3.722656 5.804688-4.777344 8.640625 2.742188-1.289063 5.542969-3.21875 8.1875-5.515625.585938 5.898438 1.664062 11.574219 3.21875 16.324219 1.125-4.871094 1.710938-10.617188 1.773438-16.550781 2.847656 2.058593 5.804687 3.722656 8.640624 4.785156-1.28125-2.703125-3.195312-5.503906-5.503906-8.160156zm0 0" fill="#f29727"/></g></svg>