<svg xmlns="http://www.w3.org/2000/svg" xmlns:xlink="http://www.w3.org/1999/xlink" width="1080" zoomAndPan="magnify" viewBox="0 0 810 809.999993" height="1080" preserveAspectRatio="xMidYMid meet" version="1.0"><defs><clipPath id="9a6c29e9b3"><path d="M 242.261719 1 L 567.761719 1 L 567.761719 809 L 242.261719 809 Z M 242.261719 1 " clip-rule="nonzero"/></clipPath></defs><g clip-path="url(#9a6c29e9b3)"><path fill="#51abb2" d="M 329.542969 806.820312 C 331.277344 805.550781 331.257812 804.925781 329.128906 794.660156 C 327.898438 788.707031 327.28125 783.449219 327.761719 782.96875 C 328.242188 782.492188 331.460938 781.957031 334.914062 781.78125 C 340.335938 781.507812 341.238281 781.167969 341.503906 779.308594 C 341.675781 778.125 339.203125 770.433594 336.007812 762.21875 L 330.203125 747.28125 L 330.1875 730.347656 C 330.179688 721.035156 329.785156 712.804688 329.308594 712.054688 C 325.726562 706.410156 288.621094 706.40625 285.039062 712.050781 C 284.5625 712.804688 284.117188 718.597656 284.046875 724.933594 C 283.785156 748.554688 282.703125 756.417969 277.988281 768.890625 C 275.597656 775.21875 273.894531 781.054688 274.203125 781.859375 C 274.628906 782.964844 276.125 783.183594 280.328125 782.75 C 288.992188 781.855469 289.117188 782.132812 285.953125 795.179688 C 284.445312 801.382812 283.449219 806.839844 283.738281 807.308594 C 284.664062 808.804688 327.453125 808.347656 329.542969 806.820312 Z M 509.710938 807.164062 C 510.050781 806.617188 509.316406 801.921875 508.082031 796.722656 C 506.847656 791.527344 506.113281 786.558594 506.449219 785.679688 C 506.902344 784.5 508.660156 784.082031 513.167969 784.082031 C 523.085938 784.082031 523.03125 784.675781 515.117188 762.90625 L 510.273438 749.582031 L 510.328125 733.179688 C 510.359375 723.839844 509.945312 716.339844 509.363281 715.757812 C 507.804688 714.199219 500.148438 712.992188 491.425781 712.925781 C 483.21875 712.863281 468.425781 715.683594 467.101562 717.5625 C 466.675781 718.160156 466.324219 724.984375 466.316406 732.730469 L 466.300781 746.804688 L 458.449219 763.699219 C 454.128906 772.992188 450.597656 781.328125 450.597656 782.226562 C 450.597656 784.480469 452.820312 785.128906 460.566406 785.128906 C 464.226562 785.128906 467.453125 785.5 467.734375 785.957031 C 468.019531 786.414062 467.035156 790.839844 465.550781 795.792969 C 464.0625 800.746094 463.140625 805.550781 463.496094 806.476562 C 464.058594 807.949219 466.941406 808.160156 486.617188 808.160156 C 499.675781 808.160156 509.355469 807.742188 509.710938 807.164062 Z M 404.425781 749.78125 C 404.449219 728.632812 404.789062 700.675781 405.175781 687.664062 C 405.695312 670.328125 405.5625 663.804688 404.683594 663.261719 C 403.96875 662.820312 403.113281 663.5 402.570312 664.9375 C 400.78125 669.675781 397.199219 693.652344 397.203125 700.855469 C 397.207031 709.386719 401.054688 756.246094 402.042969 759.796875 C 402.449219 761.265625 401.980469 763.566406 400.832031 765.699219 C 399.121094 768.871094 399.066406 770.035156 400.238281 778.417969 C 400.949219 783.492188 401.765625 788.03125 402.058594 788.5 C 403.921875 791.515625 404.382812 783.980469 404.425781 749.785156 Z M 392.347656 765.621094 C 396.949219 764.988281 397.203125 764.78125 397.191406 761.695312 C 397.167969 756.15625 396.082031 753.898438 392.914062 752.796875 C 389.183594 751.496094 389.015625 749.101562 392.496094 746.820312 C 395.75 744.6875 395.820312 742.253906 393.382812 717.269531 C 391.617188 699.167969 391.617188 699.117188 393.996094 685.863281 C 396.84375 670.027344 400.886719 654.695312 403.125 651.265625 C 404.746094 648.785156 404.746094 648.785156 406.835938 650.875 C 409.042969 653.082031 418.652344 683.546875 419.796875 691.964844 C 420.148438 694.558594 419.59375 706.101562 418.566406 717.613281 C 415.832031 748.152344 415.554688 745.667969 421.804688 746.632812 C 429 747.742188 434.363281 746.703125 438.222656 743.453125 L 441.484375 740.710938 L 440.847656 722.875 C 439.992188 698.90625 436.449219 675.710938 431.097656 658.992188 L 428.417969 650.632812 L 429.191406 504.375 L 429.964844 358.121094 L 427.128906 352.328125 C 423.722656 345.371094 420.671875 342.785156 413.328125 340.652344 C 408.925781 339.371094 406.914062 339.28125 403.488281 340.203125 C 397.964844 341.691406 391.167969 347.835938 388.710938 353.566406 C 386.453125 358.835938 383.925781 360.25 381.84375 357.40625 C 377.597656 351.597656 387.085938 336.835938 398.46875 331.539062 C 405.816406 328.121094 411.488281 327.527344 419.941406 329.296875 C 424.566406 330.265625 427.152344 330.402344 427.585938 329.699219 C 429.1875 327.109375 422.34375 294.574219 416.09375 275.074219 C 410.484375 257.578125 407.171875 257.367188 398.875 273.988281 C 390.046875 291.667969 382.925781 313.015625 379.058594 333.398438 C 375.113281 354.199219 374.773438 367.488281 373.535156 550.625 C 372.808594 658.007812 373.613281 645.425781 366.132812 666.175781 C 363.011719 674.839844 359.972656 690.265625 358.992188 702.417969 C 358.597656 707.3125 357.609375 712.359375 356.800781 713.636719 C 355.03125 716.425781 354.730469 737.03125 356.414062 740.175781 C 357.300781 741.832031 358.640625 742.203125 363.757812 742.203125 C 369.363281 742.203125 370.40625 742.558594 373.734375 745.609375 L 377.457031 749.019531 L 375.699219 756.730469 C 374.234375 763.179688 374.179688 764.59375 375.367188 765.347656 C 377.054688 766.414062 385.53125 766.546875 392.347656 765.613281 Z M 420.019531 761.574219 C 420.367188 758.042969 418.027344 754.070312 416.25 755.167969 C 414.785156 756.074219 413.5 762.609375 414.472656 764.183594 C 414.871094 764.828125 416.214844 765.214844 417.457031 765.035156 C 419.105469 764.800781 419.796875 763.871094 420.019531 761.574219 Z M 470.378906 712.425781 C 471.992188 711.59375 478.210938 709.769531 484.199219 708.371094 C 502.863281 704.019531 526.933594 698.523438 542.195312 695.132812 C 550.257812 693.34375 559.273438 691.191406 562.230469 690.351562 L 567.605469 688.828125 L 567.351562 670.761719 C 567.175781 658.109375 566.640625 651.421875 565.566406 648.441406 C 563.898438 643.804688 547.371094 622.546875 536.328125 610.832031 C 517.503906 590.867188 501.179688 566.324219 489.492188 540.421875 C 480.28125 520.007812 468.695312 485.488281 463.222656 462.167969 C 462.007812 456.984375 460.320312 449.917969 459.46875 446.464844 C 458.621094 443.007812 456.496094 433.351562 454.746094 425 C 450.746094 405.921875 449.6875 401.96875 448.585938 401.96875 C 446.84375 401.96875 446.433594 420.886719 445.761719 532.828125 L 445.078125 646.414062 L 448.796875 656.359375 C 454.023438 670.332031 456.804688 681.875 458.867188 698.203125 C 460.5625 711.585938 460.78125 712.335938 463.214844 713.015625 C 467.023438 714.078125 467.207031 714.0625 470.378906 712.425781 Z M 351.925781 711.585938 C 352.496094 710.867188 353.292969 706.035156 353.699219 700.855469 C 354.675781 688.359375 358.621094 670.457031 363.175781 657.875 C 365.207031 652.261719 367.058594 645.03125 367.285156 641.808594 C 367.511719 638.585938 368.054688 585.1875 368.488281 523.148438 C 369.058594 441.707031 368.960938 410.347656 368.132812 410.347656 C 366.742188 410.347656 366.875 409.898438 361.675781 431.550781 C 350.191406 479.347656 336.433594 518.132812 321.179688 545.734375 C 311.9375 562.457031 295.78125 586.140625 288.917969 593.027344 C 285.476562 596.480469 280.324219 602.367188 277.464844 606.113281 C 271.796875 613.53125 253.550781 634.410156 249.164062 638.496094 C 244.140625 643.179688 242.171875 652.84375 242.503906 671.179688 L 242.792969 687.15625 L 263.726562 692.140625 C 275.242188 694.886719 285.964844 697.144531 287.554688 697.160156 C 289.144531 697.175781 296.210938 698.574219 303.257812 700.265625 C 310.304688 701.957031 321.726562 704.59375 328.632812 706.121094 C 335.542969 707.652344 342.609375 709.761719 344.335938 710.8125 C 348.109375 713.101562 350.523438 713.347656 351.921875 711.582031 Z M 299.3125 570.890625 C 308.277344 558.066406 322.933594 531.609375 327.355469 520.269531 L 330.007812 513.464844 L 331.246094 378.941406 C 332.476562 244.722656 332.394531 235.785156 329.683594 214.058594 C 328.894531 207.722656 327.441406 196.03125 326.457031 188.074219 C 323.808594 166.695312 320.066406 163.765625 314.304688 178.5625 C 308.421875 193.671875 296.910156 226.902344 295.296875 233.425781 C 293.097656 242.335938 292.769531 259.085938 291.925781 406.160156 C 291.550781 471.511719 291.136719 536.050781 291.007812 549.582031 C 290.875 563.113281 290.988281 575.488281 291.253906 577.078125 C 291.875 580.769531 293.03125 579.882812 299.3125 570.890625 Z M 511.75 534.402344 C 512.734375 485.984375 513.949219 322.808594 513.671875 276.875 C 513.425781 236.652344 513.25 233.066406 510.867188 219.820312 C 509.46875 212.046875 507.5625 200.742188 506.636719 194.695312 C 504.167969 178.621094 504.050781 178.179688 501.1875 174.78125 C 497.929688 170.90625 496.320312 170.851562 494.628906 174.542969 C 490.582031 183.367188 479.871094 214.148438 478.503906 220.871094 C 476.726562 229.628906 475.195312 290.511719 474.097656 396.21875 C 473.386719 464.726562 474.113281 481.5 478.390625 495.148438 C 483.730469 512.207031 491.699219 532.40625 498.363281 545.789062 C 505.828125 560.78125 509.066406 565.878906 510.316406 564.585938 C 510.777344 564.109375 511.421875 550.53125 511.75 534.410156 Z M 353.722656 438.132812 C 355.167969 432.5625 357.265625 423.679688 358.382812 418.390625 C 366.046875 382.082031 367.960938 371.925781 368.980469 362.191406 C 370.566406 346.992188 373.8125 327.960938 376.828125 316.128906 C 379.136719 307.082031 380.78125 302.3125 387.652344 284.722656 C 391.488281 274.90625 399.683594 260.429688 402.660156 258.21875 C 406.503906 255.363281 411.25 255.515625 414.539062 258.609375 C 427.875 271.136719 440.15625 309.367188 449.488281 367.425781 C 450.738281 375.199219 452.503906 384.148438 453.417969 387.316406 C 455.058594 393.015625 455.085938 393.042969 456.007812 389.933594 C 456.523438 388.199219 457.042969 334.816406 457.171875 270.589844 C 457.382812 163.910156 457.246094 153.355469 455.539062 141.824219 C 449.648438 102.070312 437.792969 63.304688 422.132812 32.628906 C 415.660156 19.949219 413.953125 15.664062 413.953125 12.082031 C 413.953125 6.53125 412.914062 1.019531 411.867188 1.019531 C 411.4375 1.019531 409.898438 3.726562 408.445312 7.039062 C 406.996094 10.347656 403.375 16.0625 400.40625 19.734375 C 378.984375 46.222656 360.996094 86.390625 354.328125 122.632812 C 349.816406 147.140625 348.9375 162.046875 348.542969 220.863281 C 348.335938 251.667969 347.835938 315.054688 347.433594 361.71875 C 347.027344 408.386719 347.046875 448.164062 347.476562 450.117188 L 348.257812 453.671875 L 349.671875 450.964844 C 350.453125 449.476562 352.273438 443.703125 353.722656 438.132812 Z M 353.722656 438.132812 " fill-opacity="1" fill-rule="nonzero"/></g></svg>