<svg xmlns="http://www.w3.org/2000/svg" xmlns:xlink="http://www.w3.org/1999/xlink" width="1728" zoomAndPan="magnify" viewBox="0 0 1296 1727.999927" height="2304" preserveAspectRatio="xMidYMid meet" version="1.0"><defs><clipPath id="0f6b689d2b"><path d="M 351 721 L 644 721 L 644 799 L 351 799 Z M 351 721 " clip-rule="nonzero"/></clipPath><clipPath id="a780d0e779"><path d="M 102.601562 839.820312 L 1143.519531 465.289062 L 1295.617188 888.007812 L 254.699219 1262.539062 Z M 102.601562 839.820312 " clip-rule="nonzero"/></clipPath><clipPath id="0a375623ef"><path d="M 1143.796875 465.1875 L 102.875 839.722656 L 254.976562 1262.441406 L 1295.894531 887.90625 Z M 1143.796875 465.1875 " clip-rule="nonzero"/></clipPath><clipPath id="a1e244036c"><path d="M 858 882 L 1295 882 L 1295 901 L 858 901 Z M 858 882 " clip-rule="nonzero"/></clipPath><clipPath id="07b5e0bd4b"><path d="M 102.601562 839.820312 L 1143.519531 465.289062 L 1295.617188 888.007812 L 254.699219 1262.539062 Z M 102.601562 839.820312 " clip-rule="nonzero"/></clipPath><clipPath id="24e19dfdfb"><path d="M 1143.796875 465.1875 L 102.875 839.722656 L 254.976562 1262.441406 L 1295.894531 887.90625 Z M 1143.796875 465.1875 " clip-rule="nonzero"/></clipPath><clipPath id="9d1a8c3f1a"><path d="M 683 946 L 1119 946 L 1119 971 L 683 971 Z M 683 946 " clip-rule="nonzero"/></clipPath><clipPath id="d162f8e477"><path d="M 102.601562 839.820312 L 1143.519531 465.289062 L 1295.617188 888.007812 L 254.699219 1262.539062 Z M 102.601562 839.820312 " clip-rule="nonzero"/></clipPath><clipPath id="4d36d88439"><path d="M 1143.796875 465.1875 L 102.875 839.722656 L 254.976562 1262.441406 L 1295.894531 887.90625 Z M 1143.796875 465.1875 " clip-rule="nonzero"/></clipPath><clipPath id="d9fef98f67"><path d="M 833 819 L 1117 819 L 1117 836 L 833 836 Z M 833 819 " clip-rule="nonzero"/></clipPath><clipPath id="e046dac0f9"><path d="M 102.601562 839.820312 L 1143.519531 465.289062 L 1295.617188 888.007812 L 254.699219 1262.539062 Z M 102.601562 839.820312 " clip-rule="nonzero"/></clipPath><clipPath id="8e8d82e608"><path d="M 1143.796875 465.1875 L 102.875 839.722656 L 254.976562 1262.441406 L 1295.894531 887.90625 Z M 1143.796875 465.1875 " clip-rule="nonzero"/></clipPath><clipPath id="54c2b8fed3"><path d="M 127 795 L 870 795 L 870 978 L 127 978 Z M 127 795 " clip-rule="nonzero"/></clipPath><clipPath id="7d6fb01a18"><path d="M 102.601562 839.820312 L 1143.519531 465.289062 L 1295.617188 888.007812 L 254.699219 1262.539062 Z M 102.601562 839.820312 " clip-rule="nonzero"/></clipPath><clipPath id="0fc713a750"><path d="M 1143.796875 465.1875 L 102.875 839.722656 L 254.976562 1262.441406 L 1295.894531 887.90625 Z M 1143.796875 465.1875 " clip-rule="nonzero"/></clipPath><clipPath id="7797b5d21f"><path d="M 419 952 L 580 952 L 580 981 L 419 981 Z M 419 952 " clip-rule="nonzero"/></clipPath><clipPath id="efbb0e601a"><path d="M 102.601562 839.820312 L 1143.519531 465.289062 L 1295.617188 888.007812 L 254.699219 1262.539062 Z M 102.601562 839.820312 " clip-rule="nonzero"/></clipPath><clipPath id="2bb8304c9d"><path d="M 1143.796875 465.1875 L 102.875 839.722656 L 254.976562 1262.441406 L 1295.894531 887.90625 Z M 1143.796875 465.1875 " clip-rule="nonzero"/></clipPath></defs><g clip-path="url(#0f6b689d2b)"><g clip-path="url(#a780d0e779)"><g clip-path="url(#0a375623ef)"><path fill="#51abb2" d="M 417.183594 781.632812 C 426.566406 781.515625 434.121094 777.917969 434.066406 773.609375 C 434.011719 769.304688 426.363281 765.914062 416.980469 766.03125 C 407.597656 766.15625 400.03125 769.746094 400.085938 774.054688 C 400.140625 778.359375 407.800781 781.757812 417.183594 781.632812 Z M 496.96875 762.476562 C 509.386719 762.308594 519.398438 757.558594 519.324219 751.851562 C 519.242188 746.148438 509.121094 741.664062 496.703125 741.820312 C 484.28125 741.980469 474.277344 746.738281 474.347656 752.433594 C 474.421875 758.140625 484.550781 762.632812 496.96875 762.476562 Z M 577.226562 779.566406 C 586.609375 779.441406 594.175781 775.847656 594.121094 771.539062 C 594.066406 767.234375 586.40625 763.839844 577.023438 763.960938 C 567.636719 764.078125 560.078125 767.667969 560.136719 771.984375 C 560.191406 776.292969 567.839844 779.683594 577.226562 779.566406 Z M 496.4375 721.542969 C 564.039062 720.660156 621.910156 751.15625 643.515625 794.398438 C 598.632812 791.132812 549.210938 789.644531 497.328125 790.320312 C 445.445312 790.988281 396.078125 793.757812 351.292969 798.179688 C 371.78125 754.390625 428.835938 722.414062 496.4375 721.542969 " fill-opacity="1" fill-rule="nonzero"/></g></g></g><g clip-path="url(#a1e244036c)"><g clip-path="url(#07b5e0bd4b)"><g clip-path="url(#24e19dfdfb)"><path fill="#51abb2" d="M 876.746094 882.363281 L 1294.90625 885.933594 L 858.730469 900.957031 C 866.871094 894.667969 872.863281 888.496094 876.746094 882.363281 " fill-opacity="1" fill-rule="nonzero"/></g></g></g><g clip-path="url(#9d1a8c3f1a)"><g clip-path="url(#d162f8e477)"><g clip-path="url(#4d36d88439)"><path fill="#51abb2" d="M 1118.570312 951.976562 L 683.859375 970.304688 C 712.816406 963.46875 740.777344 955.347656 766.429688 946.253906 L 1118.570312 951.976562 " fill-opacity="1" fill-rule="nonzero"/></g></g></g><g clip-path="url(#d9fef98f67)"><g clip-path="url(#e046dac0f9)"><g clip-path="url(#8e8d82e608)"><path fill="#51abb2" d="M 833.46875 819.867188 L 1116.917969 824.472656 L 863.507812 835.164062 C 855.871094 829.683594 845.867188 824.585938 833.46875 819.867188 " fill-opacity="1" fill-rule="nonzero"/></g></g></g><g clip-path="url(#54c2b8fed3)"><g clip-path="url(#7d6fb01a18)"><g clip-path="url(#0fc713a750)"><path fill="#51abb2" d="M 497.734375 821.636719 C 661.011719 819.523438 799.042969 838.675781 842.5625 866.742188 C 821.203125 832.78125 674.738281 808.152344 497.59375 810.445312 C 320.4375 812.742188 174.667969 841.144531 154.191406 875.652344 C 196.964844 846.472656 334.453125 823.75 497.734375 821.636719 Z M 127.625 874.632812 C 127.09375 833.757812 292.652344 798.472656 497.394531 795.832031 C 702.152344 793.175781 868.5625 824.15625 869.089844 865.03125 C 869.546875 900.257812 728.5625 959.007812 574.421875 976.066406 C 602.359375 967.828125 622.167969 956.914062 622.070312 949.316406 C 621.902344 935.789062 566.839844 925.542969 499.09375 926.414062 C 431.34375 927.296875 376.566406 938.96875 376.742188 952.492188 C 376.839844 960.089844 396.929688 970.488281 425.070312 977.996094 C 270.539062 964.941406 128.082031 909.855469 127.625 874.632812 " fill-opacity="1" fill-rule="nonzero"/></g></g></g><g clip-path="url(#7797b5d21f)"><g clip-path="url(#efbb0e601a)"><g clip-path="url(#2bb8304c9d)"><path fill="#51abb2" d="M 419.453125 969.203125 C 419.347656 960.367188 455.144531 952.734375 499.425781 952.160156 C 543.703125 951.585938 579.691406 958.289062 579.808594 967.121094 C 579.84375 969.851562 575.960938 973.222656 569.445312 976.597656 C 546.347656 979.015625 522.988281 980.488281 499.792969 980.789062 C 476.605469 981.085938 453.210938 980.222656 430.054688 978.40625 C 423.464844 975.191406 419.492188 971.925781 419.453125 969.203125 " fill-opacity="1" fill-rule="nonzero"/></g></g></g></svg>